solid OpenSCAD_Model
  facet normal -0.980785 -0.19509 0
    outer loop
      vertex 4.40224 41.9846 4.75
      vertex 4.25 42.75 4.75
      vertex 4.25 42.75 2
    endloop
  endfacet
  facet normal -0.980785 -0.19509 0
    outer loop
      vertex 4.40224 41.9846 2
      vertex 4.40224 41.9846 4.75
      vertex 4.25 42.75 2
    endloop
  endfacet
  facet normal 0 0 1
    outer loop
      vertex 31.5587 16.7881 2
      vertex 31.2881 17.0587 2
      vertex 31.3964 16.8964 2
    endloop
  endfacet
  facet normal 0 0 1
    outer loop
      vertex 31.5587 16.7881 2
      vertex 31.25 17.25 2
      vertex 31.2881 17.0587 2
    endloop
  endfacet
  facet normal 0 -0 1
    outer loop
      vertex 31.75 16.75 2
      vertex 31.9413 16.7881 2
      vertex 31.5587 16.7881 2
    endloop
  endfacet
  facet normal 0 0 1
    outer loop
      vertex 31.9413 16.7881 2
      vertex 31.25 17.25 2
      vertex 31.5587 16.7881 2
    endloop
  endfacet
  facet normal 0 -0 1
    outer loop
      vertex 32.1036 16.8964 2
      vertex 32.2119 17.4413 2
      vertex 31.9413 16.7881 2
    endloop
  endfacet
  facet normal 0 -0 1
    outer loop
      vertex 32.2119 17.0587 2
      vertex 32.25 17.25 2
      vertex 32.1036 16.8964 2
    endloop
  endfacet
  facet normal 0 0 1
    outer loop
      vertex 32.25 17.25 2
      vertex 32.2119 17.4413 2
      vertex 32.1036 16.8964 2
    endloop
  endfacet
  facet normal 0 0 1
    outer loop
      vertex 32.2119 17.4413 2
      vertex 31.5587 17.7119 2
      vertex 31.9413 16.7881 2
    endloop
  endfacet
  facet normal 0 0 1
    outer loop
      vertex 32.1036 17.6036 2
      vertex 31.5587 17.7119 2
      vertex 32.2119 17.4413 2
    endloop
  endfacet
  facet normal 0 0 1
    outer loop
      vertex 31.9413 17.7119 2
      vertex 31.75 17.75 2
      vertex 32.1036 17.6036 2
    endloop
  endfacet
  facet normal 0 0 1
    outer loop
      vertex 31.75 17.75 2
      vertex 31.5587 17.7119 2
      vertex 32.1036 17.6036 2
    endloop
  endfacet
  facet normal 0 0 1
    outer loop
      vertex 31.5587 17.7119 2
      vertex 31.25 17.25 2
      vertex 31.9413 16.7881 2
    endloop
  endfacet
  facet normal -0 0 1
    outer loop
      vertex 31.3964 17.6036 2
      vertex 31.25 17.25 2
      vertex 31.5587 17.7119 2
    endloop
  endfacet
  facet normal -0 0 1
    outer loop
      vertex 31.2881 17.4413 2
      vertex 31.25 17.25 2
      vertex 31.3964 17.6036 2
    endloop
  endfacet
  facet normal 0 0 1
    outer loop
      vertex 31.5587 42.2881 2
      vertex 31.2881 42.5587 2
      vertex 31.3964 42.3964 2
    endloop
  endfacet
  facet normal 0 0 1
    outer loop
      vertex 31.5587 42.2881 2
      vertex 31.25 42.75 2
      vertex 31.2881 42.5587 2
    endloop
  endfacet
  facet normal 0 -0 1
    outer loop
      vertex 31.75 42.25 2
      vertex 31.9413 42.2881 2
      vertex 31.5587 42.2881 2
    endloop
  endfacet
  facet normal 0 0 1
    outer loop
      vertex 31.9413 42.2881 2
      vertex 31.25 42.75 2
      vertex 31.5587 42.2881 2
    endloop
  endfacet
  facet normal 0 -0 1
    outer loop
      vertex 32.1036 42.3964 2
      vertex 32.2119 42.9413 2
      vertex 31.9413 42.2881 2
    endloop
  endfacet
  facet normal 0 -0 1
    outer loop
      vertex 32.2119 42.5587 2
      vertex 32.25 42.75 2
      vertex 32.1036 42.3964 2
    endloop
  endfacet
  facet normal 0 0 1
    outer loop
      vertex 32.25 42.75 2
      vertex 32.2119 42.9413 2
      vertex 32.1036 42.3964 2
    endloop
  endfacet
  facet normal 0 0 1
    outer loop
      vertex 32.2119 42.9413 2
      vertex 31.5587 43.2119 2
      vertex 31.9413 42.2881 2
    endloop
  endfacet
  facet normal 0 0 1
    outer loop
      vertex 32.1036 43.1036 2
      vertex 31.5587 43.2119 2
      vertex 32.2119 42.9413 2
    endloop
  endfacet
  facet normal 0 0 1
    outer loop
      vertex 31.9413 43.2119 2
      vertex 31.75 43.25 2
      vertex 32.1036 43.1036 2
    endloop
  endfacet
  facet normal 0 0 1
    outer loop
      vertex 31.75 43.25 2
      vertex 31.5587 43.2119 2
      vertex 32.1036 43.1036 2
    endloop
  endfacet
  facet normal 0 0 1
    outer loop
      vertex 31.5587 43.2119 2
      vertex 31.25 42.75 2
      vertex 31.9413 42.2881 2
    endloop
  endfacet
  facet normal -0 0 1
    outer loop
      vertex 31.3964 43.1036 2
      vertex 31.25 42.75 2
      vertex 31.5587 43.2119 2
    endloop
  endfacet
  facet normal -0 0 1
    outer loop
      vertex 31.2881 42.9413 2
      vertex 31.25 42.75 2
      vertex 31.3964 43.1036 2
    endloop
  endfacet
  facet normal 0 0 1
    outer loop
      vertex 6.05866 16.7881 2
      vertex 5.78806 17.0587 2
      vertex 5.89645 16.8964 2
    endloop
  endfacet
  facet normal 0 0 1
    outer loop
      vertex 6.05866 16.7881 2
      vertex 5.75 17.25 2
      vertex 5.78806 17.0587 2
    endloop
  endfacet
  facet normal 0 -0 1
    outer loop
      vertex 6.25 16.75 2
      vertex 6.44134 16.7881 2
      vertex 6.05866 16.7881 2
    endloop
  endfacet
  facet normal 0 0 1
    outer loop
      vertex 6.44134 16.7881 2
      vertex 5.75 17.25 2
      vertex 6.05866 16.7881 2
    endloop
  endfacet
  facet normal 0 -0 1
    outer loop
      vertex 6.60355 16.8964 2
      vertex 6.71194 17.4413 2
      vertex 6.44134 16.7881 2
    endloop
  endfacet
  facet normal 0 -0 1
    outer loop
      vertex 6.71194 17.0587 2
      vertex 6.75 17.25 2
      vertex 6.60355 16.8964 2
    endloop
  endfacet
  facet normal 0 0 1
    outer loop
      vertex 6.75 17.25 2
      vertex 6.71194 17.4413 2
      vertex 6.60355 16.8964 2
    endloop
  endfacet
  facet normal 0 0 1
    outer loop
      vertex 6.71194 17.4413 2
      vertex 6.05866 17.7119 2
      vertex 6.44134 16.7881 2
    endloop
  endfacet
  facet normal 0 0 1
    outer loop
      vertex 6.60355 17.6036 2
      vertex 6.05866 17.7119 2
      vertex 6.71194 17.4413 2
    endloop
  endfacet
  facet normal 0 0 1
    outer loop
      vertex 6.44134 17.7119 2
      vertex 6.25 17.75 2
      vertex 6.60355 17.6036 2
    endloop
  endfacet
  facet normal 0 0 1
    outer loop
      vertex 6.25 17.75 2
      vertex 6.05866 17.7119 2
      vertex 6.60355 17.6036 2
    endloop
  endfacet
  facet normal 0 0 1
    outer loop
      vertex 6.05866 17.7119 2
      vertex 5.75 17.25 2
      vertex 6.44134 16.7881 2
    endloop
  endfacet
  facet normal -0 0 1
    outer loop
      vertex 5.89645 17.6036 2
      vertex 5.75 17.25 2
      vertex 6.05866 17.7119 2
    endloop
  endfacet
  facet normal -0 0 1
    outer loop
      vertex 5.78806 17.4413 2
      vertex 5.75 17.25 2
      vertex 5.89645 17.6036 2
    endloop
  endfacet
  facet normal 0 0 1
    outer loop
      vertex 6.05866 42.2881 2
      vertex 5.78806 42.5587 2
      vertex 5.89645 42.3964 2
    endloop
  endfacet
  facet normal 0 0 1
    outer loop
      vertex 6.05866 42.2881 2
      vertex 5.75 42.75 2
      vertex 5.78806 42.5587 2
    endloop
  endfacet
  facet normal 0 -0 1
    outer loop
      vertex 6.25 42.25 2
      vertex 6.44134 42.2881 2
      vertex 6.05866 42.2881 2
    endloop
  endfacet
  facet normal 0 0 1
    outer loop
      vertex 6.44134 42.2881 2
      vertex 5.75 42.75 2
      vertex 6.05866 42.2881 2
    endloop
  endfacet
  facet normal 0 -0 1
    outer loop
      vertex 6.60355 42.3964 2
      vertex 6.71194 42.9413 2
      vertex 6.44134 42.2881 2
    endloop
  endfacet
  facet normal 0 -0 1
    outer loop
      vertex 6.71194 42.5587 2
      vertex 6.75 42.75 2
      vertex 6.60355 42.3964 2
    endloop
  endfacet
  facet normal 0 0 1
    outer loop
      vertex 6.75 42.75 2
      vertex 6.71194 42.9413 2
      vertex 6.60355 42.3964 2
    endloop
  endfacet
  facet normal 0 0 1
    outer loop
      vertex 6.71194 42.9413 2
      vertex 6.05866 43.2119 2
      vertex 6.44134 42.2881 2
    endloop
  endfacet
  facet normal 0 0 1
    outer loop
      vertex 6.60355 43.1036 2
      vertex 6.05866 43.2119 2
      vertex 6.71194 42.9413 2
    endloop
  endfacet
  facet normal 0 0 1
    outer loop
      vertex 6.44134 43.2119 2
      vertex 6.25 43.25 2
      vertex 6.60355 43.1036 2
    endloop
  endfacet
  facet normal 0 0 1
    outer loop
      vertex 6.25 43.25 2
      vertex 6.05866 43.2119 2
      vertex 6.60355 43.1036 2
    endloop
  endfacet
  facet normal 0 0 1
    outer loop
      vertex 6.05866 43.2119 2
      vertex 5.75 42.75 2
      vertex 6.44134 42.2881 2
    endloop
  endfacet
  facet normal -0 0 1
    outer loop
      vertex 5.89645 43.1036 2
      vertex 5.75 42.75 2
      vertex 6.05866 43.2119 2
    endloop
  endfacet
  facet normal -0 0 1
    outer loop
      vertex 5.78806 42.9413 2
      vertex 5.75 42.75 2
      vertex 5.89645 43.1036 2
    endloop
  endfacet
  facet normal 0 0 1
    outer loop
      vertex 2 56 2
      vertex 2 2 2
      vertex 4.25 17.25 2
    endloop
  endfacet
  facet normal 0 0 1
    outer loop
      vertex 2 56 2
      vertex 4.25 17.25 2
      vertex 4.25 42.75 2
    endloop
  endfacet
  facet normal 0 0 1
    outer loop
      vertex 4.25 17.25 2
      vertex 4.40224 41.9846 2
      vertex 4.25 42.75 2
    endloop
  endfacet
  facet normal 0 0 1
    outer loop
      vertex 2 2 2
      vertex 30.3358 15.8358 2
      vertex 7.66421 15.8358 2
    endloop
  endfacet
  facet normal 0 0 1
    outer loop
      vertex 36 2 2
      vertex 31.75 15.25 2
      vertex 30.9846 15.4022 2
    endloop
  endfacet
  facet normal 0 0 1
    outer loop
      vertex 8.09776 43.5154 2
      vertex 8.25 42.75 2
      vertex 29.75 42.75 2
    endloop
  endfacet
  facet normal 0 -0 1
    outer loop
      vertex 8.25 17.25 2
      vertex 29.75 17.25 2
      vertex 8.09776 18.0154 2
    endloop
  endfacet
  facet normal 0 0 1
    outer loop
      vertex 8.25 17.25 2
      vertex 8.09776 16.4846 2
      vertex 29.9022 16.4846 2
    endloop
  endfacet
  facet normal 0 0 1
    outer loop
      vertex 29.9022 16.4846 2
      vertex 29.75 17.25 2
      vertex 8.25 17.25 2
    endloop
  endfacet
  facet normal 0 0 1
    outer loop
      vertex 2 2 2
      vertex 7.66421 15.8358 2
      vertex 7.01537 15.4022 2
    endloop
  endfacet
  facet normal 0 0 1
    outer loop
      vertex 2 2 2
      vertex 7.01537 15.4022 2
      vertex 6.25 15.25 2
    endloop
  endfacet
  facet normal 0 0 1
    outer loop
      vertex 2 2 2
      vertex 6.25 15.25 2
      vertex 5.48463 15.4022 2
    endloop
  endfacet
  facet normal 0 0 1
    outer loop
      vertex 2 2 2
      vertex 5.48463 15.4022 2
      vertex 4.83579 15.8358 2
    endloop
  endfacet
  facet normal 0 0 1
    outer loop
      vertex 2 2 2
      vertex 4.83579 15.8358 2
      vertex 4.40224 16.4846 2
    endloop
  endfacet
  facet normal 0 0 1
    outer loop
      vertex 2 2 2
      vertex 4.40224 16.4846 2
      vertex 4.25 17.25 2
    endloop
  endfacet
  facet normal 0 0 1
    outer loop
      vertex 2 56 2
      vertex 4.25 42.75 2
      vertex 4.40224 43.5154 2
    endloop
  endfacet
  facet normal 0 0 1
    outer loop
      vertex 2 56 2
      vertex 4.40224 43.5154 2
      vertex 4.83579 44.1642 2
    endloop
  endfacet
  facet normal 0 0 1
    outer loop
      vertex 2 56 2
      vertex 4.83579 44.1642 2
      vertex 5.48463 44.5978 2
    endloop
  endfacet
  facet normal -0 0 1
    outer loop
      vertex 2 56 2
      vertex 30.3358 44.1642 2
      vertex 36 56 2
    endloop
  endfacet
  facet normal 0 -0 1
    outer loop
      vertex 5.48463 44.5978 2
      vertex 6.25 44.75 2
      vertex 2 56 2
    endloop
  endfacet
  facet normal -0 -0 1
    outer loop
      vertex 6.25 44.75 2
      vertex 7.01537 44.5978 2
      vertex 2 56 2
    endloop
  endfacet
  facet normal 0 0 1
    outer loop
      vertex 6.25 40.75 2
      vertex 6.25 19.25 2
      vertex 7.01537 19.0978 2
    endloop
  endfacet
  facet normal -0 -0 1
    outer loop
      vertex 7.01537 44.5978 2
      vertex 7.66421 44.1642 2
      vertex 2 56 2
    endloop
  endfacet
  facet normal 0 0 1
    outer loop
      vertex 7.66421 18.6642 2
      vertex 7.66421 41.3358 2
      vertex 7.01537 19.0978 2
    endloop
  endfacet
  facet normal -0 0 1
    outer loop
      vertex 8.09776 43.5154 2
      vertex 29.75 42.75 2
      vertex 29.9022 43.5154 2
    endloop
  endfacet
  facet normal 0 -0 1
    outer loop
      vertex 7.66421 18.6642 2
      vertex 30.3358 41.3358 2
      vertex 7.66421 41.3358 2
    endloop
  endfacet
  facet normal 0 -0 1
    outer loop
      vertex 8.09776 43.5154 2
      vertex 29.9022 43.5154 2
      vertex 7.66421 44.1642 2
    endloop
  endfacet
  facet normal 0 -0 1
    outer loop
      vertex 30.3358 18.6642 2
      vertex 30.3358 41.3358 2
      vertex 7.66421 18.6642 2
    endloop
  endfacet
  facet normal 0 0 1
    outer loop
      vertex 8.25 42.75 2
      vertex 8.09776 41.9846 2
      vertex 29.9022 41.9846 2
    endloop
  endfacet
  facet normal 0 0 1
    outer loop
      vertex 6.25 19.25 2
      vertex 6.25 40.75 2
      vertex 5.48463 19.0978 2
    endloop
  endfacet
  facet normal 0 0 1
    outer loop
      vertex 7.66421 41.3358 2
      vertex 7.01537 40.9022 2
      vertex 7.01537 19.0978 2
    endloop
  endfacet
  facet normal 0 0 1
    outer loop
      vertex 7.01537 40.9022 2
      vertex 6.25 40.75 2
      vertex 7.01537 19.0978 2
    endloop
  endfacet
  facet normal 0 0 1
    outer loop
      vertex 5.48463 40.9022 2
      vertex 4.83579 18.6642 2
      vertex 5.48463 19.0978 2
    endloop
  endfacet
  facet normal 0 0 1
    outer loop
      vertex 6.25 40.75 2
      vertex 5.48463 40.9022 2
      vertex 5.48463 19.0978 2
    endloop
  endfacet
  facet normal 0 0 1
    outer loop
      vertex 5.48463 40.9022 2
      vertex 4.83579 41.3358 2
      vertex 4.83579 18.6642 2
    endloop
  endfacet
  facet normal 0 0 1
    outer loop
      vertex 4.83579 41.3358 2
      vertex 4.40224 18.0154 2
      vertex 4.83579 18.6642 2
    endloop
  endfacet
  facet normal 0 0 1
    outer loop
      vertex 4.83579 41.3358 2
      vertex 4.40224 41.9846 2
      vertex 4.40224 18.0154 2
    endloop
  endfacet
  facet normal 0 0 1
    outer loop
      vertex 4.40224 41.9846 2
      vertex 4.25 17.25 2
      vertex 4.40224 18.0154 2
    endloop
  endfacet
  facet normal 0 -0 1
    outer loop
      vertex 8.09776 18.0154 2
      vertex 29.9022 18.0154 2
      vertex 7.66421 18.6642 2
    endloop
  endfacet
  facet normal 0 -0 1
    outer loop
      vertex 29.75 17.25 2
      vertex 29.9022 18.0154 2
      vertex 8.09776 18.0154 2
    endloop
  endfacet
  facet normal 0 -0 1
    outer loop
      vertex 29.9022 18.0154 2
      vertex 30.3358 18.6642 2
      vertex 7.66421 18.6642 2
    endloop
  endfacet
  facet normal 0 0 1
    outer loop
      vertex 32.5154 19.0978 2
      vertex 33.1642 41.3358 2
      vertex 32.5154 40.9022 2
    endloop
  endfacet
  facet normal 0 0 1
    outer loop
      vertex 2 2 2
      vertex 36 2 2
      vertex 30.3358 15.8358 2
    endloop
  endfacet
  facet normal 0 0 1
    outer loop
      vertex 33.1642 41.3358 2
      vertex 32.5154 19.0978 2
      vertex 33.1642 18.6642 2
    endloop
  endfacet
  facet normal -0 0 1
    outer loop
      vertex 33.75 17.25 2
      vertex 36 2 2
      vertex 36 56 2
    endloop
  endfacet
  facet normal -0 0 1
    outer loop
      vertex 33.5978 16.4846 2
      vertex 36 2 2
      vertex 33.75 17.25 2
    endloop
  endfacet
  facet normal -0 0 1
    outer loop
      vertex 33.1642 15.8358 2
      vertex 36 2 2
      vertex 33.5978 16.4846 2
    endloop
  endfacet
  facet normal -0 0 1
    outer loop
      vertex 32.5154 15.4022 2
      vertex 36 2 2
      vertex 33.1642 15.8358 2
    endloop
  endfacet
  facet normal -0 0 1
    outer loop
      vertex 31.75 15.25 2
      vertex 36 2 2
      vertex 32.5154 15.4022 2
    endloop
  endfacet
  facet normal 0 0 1
    outer loop
      vertex 7.66421 15.8358 2
      vertex 30.3358 15.8358 2
      vertex 8.09776 16.4846 2
    endloop
  endfacet
  facet normal 0 0 1
    outer loop
      vertex 30.3358 15.8358 2
      vertex 36 2 2
      vertex 30.9846 15.4022 2
    endloop
  endfacet
  facet normal 0 0 1
    outer loop
      vertex 29.9022 16.4846 2
      vertex 8.09776 16.4846 2
      vertex 30.3358 15.8358 2
    endloop
  endfacet
  facet normal 0 0 1
    outer loop
      vertex 29.9022 41.9846 2
      vertex 29.75 42.75 2
      vertex 8.25 42.75 2
    endloop
  endfacet
  facet normal 0 -0 1
    outer loop
      vertex 7.66421 44.1642 2
      vertex 30.3358 44.1642 2
      vertex 2 56 2
    endloop
  endfacet
  facet normal 0 -0 1
    outer loop
      vertex 29.9022 43.5154 2
      vertex 30.3358 44.1642 2
      vertex 7.66421 44.1642 2
    endloop
  endfacet
  facet normal 0 0 1
    outer loop
      vertex 30.3358 44.1642 2
      vertex 30.9846 44.5978 2
      vertex 36 56 2
    endloop
  endfacet
  facet normal 0 0 1
    outer loop
      vertex 30.9846 44.5978 2
      vertex 31.75 44.75 2
      vertex 36 56 2
    endloop
  endfacet
  facet normal 0 0 1
    outer loop
      vertex 30.9846 19.0978 2
      vertex 31.75 19.25 2
      vertex 31.75 40.75 2
    endloop
  endfacet
  facet normal -0 0 1
    outer loop
      vertex 31.75 44.75 2
      vertex 32.5154 44.5978 2
      vertex 36 56 2
    endloop
  endfacet
  facet normal 0 0 1
    outer loop
      vertex 31.75 40.75 2
      vertex 31.75 19.25 2
      vertex 32.5154 19.0978 2
    endloop
  endfacet
  facet normal -0 0 1
    outer loop
      vertex 32.5154 44.5978 2
      vertex 33.1642 44.1642 2
      vertex 36 56 2
    endloop
  endfacet
  facet normal 0 -0 1
    outer loop
      vertex 33.5978 18.0154 2
      vertex 33.5978 41.9846 2
      vertex 33.1642 18.6642 2
    endloop
  endfacet
  facet normal -0 0 1
    outer loop
      vertex 33.1642 44.1642 2
      vertex 33.5978 43.5154 2
      vertex 36 56 2
    endloop
  endfacet
  facet normal -0 0 1
    outer loop
      vertex 33.5978 18.0154 2
      vertex 33.75 17.25 2
      vertex 33.75 42.75 2
    endloop
  endfacet
  facet normal -0 0 1
    outer loop
      vertex 33.5978 43.5154 2
      vertex 33.75 42.75 2
      vertex 36 56 2
    endloop
  endfacet
  facet normal -0 0 1
    outer loop
      vertex 33.75 42.75 2
      vertex 33.75 17.25 2
      vertex 36 56 2
    endloop
  endfacet
  facet normal -0 0 1
    outer loop
      vertex 33.5978 41.9846 2
      vertex 33.5978 18.0154 2
      vertex 33.75 42.75 2
    endloop
  endfacet
  facet normal -0 0 1
    outer loop
      vertex 33.1642 41.3358 2
      vertex 33.1642 18.6642 2
      vertex 33.5978 41.9846 2
    endloop
  endfacet
  facet normal 0 -0 1
    outer loop
      vertex 32.5154 19.0978 2
      vertex 32.5154 40.9022 2
      vertex 31.75 40.75 2
    endloop
  endfacet
  facet normal 0 -0 1
    outer loop
      vertex 30.9846 19.0978 2
      vertex 30.9846 40.9022 2
      vertex 30.3358 18.6642 2
    endloop
  endfacet
  facet normal 0 0 1
    outer loop
      vertex 31.75 40.75 2
      vertex 30.9846 40.9022 2
      vertex 30.9846 19.0978 2
    endloop
  endfacet
  facet normal 0 0 1
    outer loop
      vertex 30.3358 41.3358 2
      vertex 8.09776 41.9846 2
      vertex 7.66421 41.3358 2
    endloop
  endfacet
  facet normal 0 0 1
    outer loop
      vertex 30.3358 41.3358 2
      vertex 30.3358 18.6642 2
      vertex 30.9846 40.9022 2
    endloop
  endfacet
  facet normal 0 0 1
    outer loop
      vertex 29.9022 41.9846 2
      vertex 8.09776 41.9846 2
      vertex 30.3358 41.3358 2
    endloop
  endfacet
  facet normal 0.19509 0.980785 0
    outer loop
      vertex 6.25 44.75 4.75
      vertex 7.01537 44.5978 2
      vertex 6.25 44.75 2
    endloop
  endfacet
  facet normal 0.19509 0.980785 0
    outer loop
      vertex 6.25 44.75 4.75
      vertex 7.01537 44.5978 4.75
      vertex 7.01537 44.5978 2
    endloop
  endfacet
  facet normal 0.19509 -0.980785 0
    outer loop
      vertex 7.01537 40.9022 2
      vertex 6.25 40.75 4.75
      vertex 6.25 40.75 2
    endloop
  endfacet
  facet normal 0.19509 -0.980785 0
    outer loop
      vertex 7.01537 40.9022 2
      vertex 7.01537 40.9022 4.75
      vertex 6.25 40.75 4.75
    endloop
  endfacet
  facet normal -0.980785 0.19509 0
    outer loop
      vertex 4.25 42.75 4.75
      vertex 4.40224 43.5154 2
      vertex 4.25 42.75 2
    endloop
  endfacet
  facet normal -0.980785 0.19509 0
    outer loop
      vertex 4.25 42.75 4.75
      vertex 4.40224 43.5154 4.75
      vertex 4.40224 43.5154 2
    endloop
  endfacet
  facet normal 0.83147 -0.55557 0
    outer loop
      vertex 8.09776 41.9846 2
      vertex 7.66421 41.3358 4.75
      vertex 7.66421 41.3358 2
    endloop
  endfacet
  facet normal 0.83147 -0.55557 0
    outer loop
      vertex 8.09776 41.9846 2
      vertex 8.09776 41.9846 4.75
      vertex 7.66421 41.3358 4.75
    endloop
  endfacet
  facet normal 0.83147 0.55557 0
    outer loop
      vertex 8.09776 43.5154 4.75
      vertex 8.09776 43.5154 2
      vertex 7.66421 44.1642 2
    endloop
  endfacet
  facet normal 0.83147 0.55557 0
    outer loop
      vertex 7.66421 44.1642 4.75
      vertex 8.09776 43.5154 4.75
      vertex 7.66421 44.1642 2
    endloop
  endfacet
  facet normal 0.980785 0.19509 0
    outer loop
      vertex 8.25 42.75 4.75
      vertex 8.25 42.75 2
      vertex 8.09776 43.5154 2
    endloop
  endfacet
  facet normal 0.980785 0.19509 0
    outer loop
      vertex 8.09776 43.5154 4.75
      vertex 8.25 42.75 4.75
      vertex 8.09776 43.5154 2
    endloop
  endfacet
  facet normal 0.55557 0.83147 0
    outer loop
      vertex 7.01537 44.5978 4.75
      vertex 7.66421 44.1642 2
      vertex 7.01537 44.5978 2
    endloop
  endfacet
  facet normal 0.55557 0.83147 0
    outer loop
      vertex 7.01537 44.5978 4.75
      vertex 7.66421 44.1642 4.75
      vertex 7.66421 44.1642 2
    endloop
  endfacet
  facet normal 0 0 1
    outer loop
      vertex 4.83579 44.1642 4.75
      vertex 4.40224 43.5154 4.75
      vertex 5.78806 42.9413 4.75
    endloop
  endfacet
  facet normal 0 -0 1
    outer loop
      vertex 4.40224 41.9846 4.75
      vertex 5.78806 42.5587 4.75
      vertex 4.25 42.75 4.75
    endloop
  endfacet
  facet normal 0 0 1
    outer loop
      vertex 5.89645 42.3964 4.75
      vertex 5.78806 42.5587 4.75
      vertex 4.40224 41.9846 4.75
    endloop
  endfacet
  facet normal 0 0 1
    outer loop
      vertex 5.48463 44.5978 4.75
      vertex 4.83579 44.1642 4.75
      vertex 5.89645 43.1036 4.75
    endloop
  endfacet
  facet normal 0 0 1
    outer loop
      vertex 5.78806 42.9413 4.75
      vertex 4.40224 43.5154 4.75
      vertex 4.25 42.75 4.75
    endloop
  endfacet
  facet normal 0 0 1
    outer loop
      vertex 4.25 42.75 4.75
      vertex 5.75 42.75 4.75
      vertex 5.78806 42.9413 4.75
    endloop
  endfacet
  facet normal 0 0 1
    outer loop
      vertex 5.75 42.75 4.75
      vertex 4.25 42.75 4.75
      vertex 5.78806 42.5587 4.75
    endloop
  endfacet
  facet normal -0 0 1
    outer loop
      vertex 5.48463 44.5978 4.75
      vertex 6.25 43.25 4.75
      vertex 6.25 44.75 4.75
    endloop
  endfacet
  facet normal 0 0 1
    outer loop
      vertex 7.66421 44.1642 4.75
      vertex 7.01537 44.5978 4.75
      vertex 6.44134 43.2119 4.75
    endloop
  endfacet
  facet normal 0 -0 1
    outer loop
      vertex 5.78806 42.9413 4.75
      vertex 5.89645 43.1036 4.75
      vertex 4.83579 44.1642 4.75
    endloop
  endfacet
  facet normal 0 -0 1
    outer loop
      vertex 6.44134 43.2119 4.75
      vertex 7.01537 44.5978 4.75
      vertex 6.25 44.75 4.75
    endloop
  endfacet
  facet normal 0 0 1
    outer loop
      vertex 5.48463 44.5978 4.75
      vertex 6.05866 43.2119 4.75
      vertex 6.25 43.25 4.75
    endloop
  endfacet
  facet normal 0 0 1
    outer loop
      vertex 6.05866 43.2119 4.75
      vertex 5.48463 44.5978 4.75
      vertex 5.89645 43.1036 4.75
    endloop
  endfacet
  facet normal 0 0 1
    outer loop
      vertex 7.66421 44.1642 4.75
      vertex 6.60355 43.1036 4.75
      vertex 8.09776 43.5154 4.75
    endloop
  endfacet
  facet normal 0 -0 1
    outer loop
      vertex 8.09776 41.9846 4.75
      vertex 8.25 42.75 4.75
      vertex 6.71194 42.5587 4.75
    endloop
  endfacet
  facet normal -0 0 1
    outer loop
      vertex 6.25 43.25 4.75
      vertex 6.44134 43.2119 4.75
      vertex 6.25 44.75 4.75
    endloop
  endfacet
  facet normal 0 0 1
    outer loop
      vertex 6.75 42.75 4.75
      vertex 8.25 42.75 4.75
      vertex 8.09776 43.5154 4.75
    endloop
  endfacet
  facet normal 0 0 1
    outer loop
      vertex 8.09776 43.5154 4.75
      vertex 6.60355 43.1036 4.75
      vertex 6.71194 42.9413 4.75
    endloop
  endfacet
  facet normal 0 -0 1
    outer loop
      vertex 6.60355 43.1036 4.75
      vertex 7.66421 44.1642 4.75
      vertex 6.44134 43.2119 4.75
    endloop
  endfacet
  facet normal 0 0 1
    outer loop
      vertex 8.09776 41.9846 4.75
      vertex 6.71194 42.5587 4.75
      vertex 7.66421 41.3358 4.75
    endloop
  endfacet
  facet normal 0 0 1
    outer loop
      vertex 6.25 40.75 4.75
      vertex 7.01537 40.9022 4.75
      vertex 6.25 42.25 4.75
    endloop
  endfacet
  facet normal -0 0 1
    outer loop
      vertex 6.71194 42.9413 4.75
      vertex 6.75 42.75 4.75
      vertex 8.09776 43.5154 4.75
    endloop
  endfacet
  facet normal 0 0 1
    outer loop
      vertex 6.60355 42.3964 4.75
      vertex 7.01537 40.9022 4.75
      vertex 7.66421 41.3358 4.75
    endloop
  endfacet
  facet normal 0 0 1
    outer loop
      vertex 7.66421 41.3358 4.75
      vertex 6.71194 42.5587 4.75
      vertex 6.60355 42.3964 4.75
    endloop
  endfacet
  facet normal 0 0 1
    outer loop
      vertex 6.71194 42.5587 4.75
      vertex 8.25 42.75 4.75
      vertex 6.75 42.75 4.75
    endloop
  endfacet
  facet normal 0 0 1
    outer loop
      vertex 7.01537 40.9022 4.75
      vertex 6.60355 42.3964 4.75
      vertex 6.44134 42.2881 4.75
    endloop
  endfacet
  facet normal 0 -0 1
    outer loop
      vertex 6.25 40.75 4.75
      vertex 6.25 42.25 4.75
      vertex 5.48463 40.9022 4.75
    endloop
  endfacet
  facet normal 0 0 1
    outer loop
      vertex 6.44134 42.2881 4.75
      vertex 6.25 42.25 4.75
      vertex 7.01537 40.9022 4.75
    endloop
  endfacet
  facet normal 0 0 1
    outer loop
      vertex 6.25 42.25 4.75
      vertex 6.05866 42.2881 4.75
      vertex 5.48463 40.9022 4.75
    endloop
  endfacet
  facet normal 0 0 1
    outer loop
      vertex 5.89645 42.3964 4.75
      vertex 4.83579 41.3358 4.75
      vertex 5.48463 40.9022 4.75
    endloop
  endfacet
  facet normal 0 0 1
    outer loop
      vertex 6.05866 42.2881 4.75
      vertex 5.89645 42.3964 4.75
      vertex 5.48463 40.9022 4.75
    endloop
  endfacet
  facet normal 0 0 1
    outer loop
      vertex 5.89645 42.3964 4.75
      vertex 4.40224 41.9846 4.75
      vertex 4.83579 41.3358 4.75
    endloop
  endfacet
  facet normal -0.19509 -0.980785 0
    outer loop
      vertex 6.25 40.75 2
      vertex 5.48463 40.9022 4.75
      vertex 5.48463 40.9022 2
    endloop
  endfacet
  facet normal -0.19509 -0.980785 0
    outer loop
      vertex 6.25 40.75 2
      vertex 6.25 40.75 4.75
      vertex 5.48463 40.9022 4.75
    endloop
  endfacet
  facet normal -0.55557 -0.83147 0
    outer loop
      vertex 5.48463 40.9022 2
      vertex 4.83579 41.3358 4.75
      vertex 4.83579 41.3358 2
    endloop
  endfacet
  facet normal -0.55557 -0.83147 0
    outer loop
      vertex 5.48463 40.9022 2
      vertex 5.48463 40.9022 4.75
      vertex 4.83579 41.3358 4.75
    endloop
  endfacet
  facet normal -0.83147 -0.55557 0
    outer loop
      vertex 4.83579 41.3358 4.75
      vertex 4.40224 41.9846 4.75
      vertex 4.40224 41.9846 2
    endloop
  endfacet
  facet normal -0.83147 -0.55557 0
    outer loop
      vertex 4.83579 41.3358 2
      vertex 4.83579 41.3358 4.75
      vertex 4.40224 41.9846 2
    endloop
  endfacet
  facet normal 0.980785 -0.19509 0
    outer loop
      vertex 8.25 42.75 2
      vertex 8.09776 41.9846 4.75
      vertex 8.09776 41.9846 2
    endloop
  endfacet
  facet normal 0.980785 -0.19509 0
    outer loop
      vertex 8.25 42.75 2
      vertex 8.25 42.75 4.75
      vertex 8.09776 41.9846 4.75
    endloop
  endfacet
  facet normal 0.55557 -0.83147 0
    outer loop
      vertex 7.66421 41.3358 2
      vertex 7.01537 40.9022 4.75
      vertex 7.01537 40.9022 2
    endloop
  endfacet
  facet normal 0.55557 -0.83147 0
    outer loop
      vertex 7.66421 41.3358 2
      vertex 7.66421 41.3358 4.75
      vertex 7.01537 40.9022 4.75
    endloop
  endfacet
  facet normal -0.55557 0.83147 0
    outer loop
      vertex 4.83579 44.1642 4.75
      vertex 5.48463 44.5978 2
      vertex 4.83579 44.1642 2
    endloop
  endfacet
  facet normal -0.55557 0.83147 0
    outer loop
      vertex 4.83579 44.1642 4.75
      vertex 5.48463 44.5978 4.75
      vertex 5.48463 44.5978 2
    endloop
  endfacet
  facet normal -0.19509 0.980785 0
    outer loop
      vertex 5.48463 44.5978 4.75
      vertex 6.25 44.75 2
      vertex 5.48463 44.5978 2
    endloop
  endfacet
  facet normal -0.19509 0.980785 0
    outer loop
      vertex 5.48463 44.5978 4.75
      vertex 6.25 44.75 4.75
      vertex 6.25 44.75 2
    endloop
  endfacet
  facet normal -0.83147 0.55557 0
    outer loop
      vertex 4.40224 43.5154 4.75
      vertex 4.83579 44.1642 2
      vertex 4.40224 43.5154 2
    endloop
  endfacet
  facet normal -0.83147 0.55557 0
    outer loop
      vertex 4.40224 43.5154 4.75
      vertex 4.83579 44.1642 4.75
      vertex 4.83579 44.1642 2
    endloop
  endfacet
  facet normal 0.980785 0.19509 -0
    outer loop
      vertex 5.75 42.75 2
      vertex 5.75 42.75 4.75
      vertex 5.78806 42.5587 4.75
    endloop
  endfacet
  facet normal 0.980785 0.19509 -0
    outer loop
      vertex 5.78806 42.5587 2
      vertex 5.75 42.75 2
      vertex 5.78806 42.5587 4.75
    endloop
  endfacet
  facet normal -0.980785 0.19509 0
    outer loop
      vertex 6.75 42.75 2
      vertex 6.71194 42.5587 4.75
      vertex 6.75 42.75 4.75
    endloop
  endfacet
  facet normal -0.980785 0.19509 0
    outer loop
      vertex 6.75 42.75 2
      vertex 6.71194 42.5587 2
      vertex 6.71194 42.5587 4.75
    endloop
  endfacet
  facet normal -0.55557 -0.83147 0
    outer loop
      vertex 6.44134 43.2119 4.75
      vertex 6.60355 43.1036 2
      vertex 6.60355 43.1036 4.75
    endloop
  endfacet
  facet normal -0.55557 -0.83147 -0
    outer loop
      vertex 6.44134 43.2119 4.75
      vertex 6.44134 43.2119 2
      vertex 6.60355 43.1036 2
    endloop
  endfacet
  facet normal 0.83147 0.55557 -0
    outer loop
      vertex 5.78806 42.5587 2
      vertex 5.78806 42.5587 4.75
      vertex 5.89645 42.3964 4.75
    endloop
  endfacet
  facet normal 0.83147 0.55557 -0
    outer loop
      vertex 5.89645 42.3964 2
      vertex 5.78806 42.5587 2
      vertex 5.89645 42.3964 4.75
    endloop
  endfacet
  facet normal -0.83147 -0.55557 0
    outer loop
      vertex 6.60355 43.1036 2
      vertex 6.71194 42.9413 2
      vertex 6.71194 42.9413 4.75
    endloop
  endfacet
  facet normal -0.83147 -0.55557 -0
    outer loop
      vertex 6.60355 43.1036 4.75
      vertex 6.60355 43.1036 2
      vertex 6.71194 42.9413 4.75
    endloop
  endfacet
  facet normal 0.980785 -0.19509 0
    outer loop
      vertex 5.75 42.75 4.75
      vertex 5.78806 42.9413 2
      vertex 5.78806 42.9413 4.75
    endloop
  endfacet
  facet normal 0.980785 -0.19509 0
    outer loop
      vertex 5.75 42.75 4.75
      vertex 5.75 42.75 2
      vertex 5.78806 42.9413 2
    endloop
  endfacet
  facet normal -0.19509 0.980785 0
    outer loop
      vertex 6.44134 42.2881 2
      vertex 6.25 42.25 4.75
      vertex 6.44134 42.2881 4.75
    endloop
  endfacet
  facet normal -0.19509 0.980785 0
    outer loop
      vertex 6.44134 42.2881 2
      vertex 6.25 42.25 2
      vertex 6.25 42.25 4.75
    endloop
  endfacet
  facet normal -0.83147 0.55557 0
    outer loop
      vertex 6.71194 42.5587 2
      vertex 6.60355 42.3964 4.75
      vertex 6.71194 42.5587 4.75
    endloop
  endfacet
  facet normal -0.83147 0.55557 0
    outer loop
      vertex 6.71194 42.5587 2
      vertex 6.60355 42.3964 2
      vertex 6.60355 42.3964 4.75
    endloop
  endfacet
  facet normal -0.55557 0.83147 0
    outer loop
      vertex 6.60355 42.3964 2
      vertex 6.44134 42.2881 4.75
      vertex 6.60355 42.3964 4.75
    endloop
  endfacet
  facet normal -0.55557 0.83147 0
    outer loop
      vertex 6.60355 42.3964 2
      vertex 6.44134 42.2881 2
      vertex 6.44134 42.2881 4.75
    endloop
  endfacet
  facet normal -0.19509 -0.980785 0
    outer loop
      vertex 6.25 43.25 4.75
      vertex 6.44134 43.2119 2
      vertex 6.44134 43.2119 4.75
    endloop
  endfacet
  facet normal -0.19509 -0.980785 -0
    outer loop
      vertex 6.25 43.25 4.75
      vertex 6.25 43.25 2
      vertex 6.44134 43.2119 2
    endloop
  endfacet
  facet normal 0.19509 -0.980785 0
    outer loop
      vertex 6.05866 43.2119 4.75
      vertex 6.25 43.25 2
      vertex 6.25 43.25 4.75
    endloop
  endfacet
  facet normal 0.19509 -0.980785 0
    outer loop
      vertex 6.05866 43.2119 4.75
      vertex 6.05866 43.2119 2
      vertex 6.25 43.25 2
    endloop
  endfacet
  facet normal 0.19509 0.980785 -0
    outer loop
      vertex 6.25 42.25 2
      vertex 6.05866 42.2881 4.75
      vertex 6.25 42.25 4.75
    endloop
  endfacet
  facet normal 0.19509 0.980785 0
    outer loop
      vertex 6.25 42.25 2
      vertex 6.05866 42.2881 2
      vertex 6.05866 42.2881 4.75
    endloop
  endfacet
  facet normal 0.55557 0.83147 -0
    outer loop
      vertex 6.05866 42.2881 2
      vertex 5.89645 42.3964 4.75
      vertex 6.05866 42.2881 4.75
    endloop
  endfacet
  facet normal 0.55557 0.83147 0
    outer loop
      vertex 6.05866 42.2881 2
      vertex 5.89645 42.3964 2
      vertex 5.89645 42.3964 4.75
    endloop
  endfacet
  facet normal -0.980785 -0.19509 0
    outer loop
      vertex 6.71194 42.9413 2
      vertex 6.75 42.75 2
      vertex 6.75 42.75 4.75
    endloop
  endfacet
  facet normal -0.980785 -0.19509 -0
    outer loop
      vertex 6.71194 42.9413 4.75
      vertex 6.71194 42.9413 2
      vertex 6.75 42.75 4.75
    endloop
  endfacet
  facet normal 0.83147 -0.55557 0
    outer loop
      vertex 5.78806 42.9413 4.75
      vertex 5.89645 43.1036 2
      vertex 5.89645 43.1036 4.75
    endloop
  endfacet
  facet normal 0.83147 -0.55557 0
    outer loop
      vertex 5.78806 42.9413 4.75
      vertex 5.78806 42.9413 2
      vertex 5.89645 43.1036 2
    endloop
  endfacet
  facet normal 0.55557 -0.83147 0
    outer loop
      vertex 5.89645 43.1036 4.75
      vertex 6.05866 43.2119 2
      vertex 6.05866 43.2119 4.75
    endloop
  endfacet
  facet normal 0.55557 -0.83147 0
    outer loop
      vertex 5.89645 43.1036 4.75
      vertex 5.89645 43.1036 2
      vertex 6.05866 43.2119 2
    endloop
  endfacet
  facet normal -0.980785 -0.19509 0
    outer loop
      vertex 4.40224 16.4846 4.75
      vertex 4.25 17.25 4.75
      vertex 4.25 17.25 2
    endloop
  endfacet
  facet normal -0.980785 -0.19509 0
    outer loop
      vertex 4.40224 16.4846 2
      vertex 4.40224 16.4846 4.75
      vertex 4.25 17.25 2
    endloop
  endfacet
  facet normal 0.19509 0.980785 0
    outer loop
      vertex 6.25 19.25 4.75
      vertex 7.01537 19.0978 2
      vertex 6.25 19.25 2
    endloop
  endfacet
  facet normal 0.19509 0.980785 0
    outer loop
      vertex 6.25 19.25 4.75
      vertex 7.01537 19.0978 4.75
      vertex 7.01537 19.0978 2
    endloop
  endfacet
  facet normal 0.19509 -0.980785 0
    outer loop
      vertex 7.01537 15.4022 2
      vertex 6.25 15.25 4.75
      vertex 6.25 15.25 2
    endloop
  endfacet
  facet normal 0.19509 -0.980785 0
    outer loop
      vertex 7.01537 15.4022 2
      vertex 7.01537 15.4022 4.75
      vertex 6.25 15.25 4.75
    endloop
  endfacet
  facet normal -0.980785 0.19509 0
    outer loop
      vertex 4.25 17.25 4.75
      vertex 4.40224 18.0154 2
      vertex 4.25 17.25 2
    endloop
  endfacet
  facet normal -0.980785 0.19509 0
    outer loop
      vertex 4.25 17.25 4.75
      vertex 4.40224 18.0154 4.75
      vertex 4.40224 18.0154 2
    endloop
  endfacet
  facet normal 0.83147 -0.55557 0
    outer loop
      vertex 8.09776 16.4846 2
      vertex 7.66421 15.8358 4.75
      vertex 7.66421 15.8358 2
    endloop
  endfacet
  facet normal 0.83147 -0.55557 0
    outer loop
      vertex 8.09776 16.4846 2
      vertex 8.09776 16.4846 4.75
      vertex 7.66421 15.8358 4.75
    endloop
  endfacet
  facet normal 0.83147 0.55557 0
    outer loop
      vertex 8.09776 18.0154 4.75
      vertex 8.09776 18.0154 2
      vertex 7.66421 18.6642 2
    endloop
  endfacet
  facet normal 0.83147 0.55557 0
    outer loop
      vertex 7.66421 18.6642 4.75
      vertex 8.09776 18.0154 4.75
      vertex 7.66421 18.6642 2
    endloop
  endfacet
  facet normal 0.980785 0.19509 0
    outer loop
      vertex 8.25 17.25 4.75
      vertex 8.25 17.25 2
      vertex 8.09776 18.0154 2
    endloop
  endfacet
  facet normal 0.980785 0.19509 0
    outer loop
      vertex 8.09776 18.0154 4.75
      vertex 8.25 17.25 4.75
      vertex 8.09776 18.0154 2
    endloop
  endfacet
  facet normal 0.55557 0.83147 0
    outer loop
      vertex 7.01537 19.0978 4.75
      vertex 7.66421 18.6642 2
      vertex 7.01537 19.0978 2
    endloop
  endfacet
  facet normal 0.55557 0.83147 0
    outer loop
      vertex 7.01537 19.0978 4.75
      vertex 7.66421 18.6642 4.75
      vertex 7.66421 18.6642 2
    endloop
  endfacet
  facet normal 0 0 1
    outer loop
      vertex 4.83579 18.6642 4.75
      vertex 4.40224 18.0154 4.75
      vertex 5.78806 17.4413 4.75
    endloop
  endfacet
  facet normal 0 -0 1
    outer loop
      vertex 4.40224 16.4846 4.75
      vertex 5.78806 17.0587 4.75
      vertex 4.25 17.25 4.75
    endloop
  endfacet
  facet normal 0 0 1
    outer loop
      vertex 5.89645 16.8964 4.75
      vertex 5.78806 17.0587 4.75
      vertex 4.40224 16.4846 4.75
    endloop
  endfacet
  facet normal 0 0 1
    outer loop
      vertex 5.48463 19.0978 4.75
      vertex 4.83579 18.6642 4.75
      vertex 5.89645 17.6036 4.75
    endloop
  endfacet
  facet normal 0 0 1
    outer loop
      vertex 5.78806 17.4413 4.75
      vertex 4.40224 18.0154 4.75
      vertex 4.25 17.25 4.75
    endloop
  endfacet
  facet normal 0 0 1
    outer loop
      vertex 4.25 17.25 4.75
      vertex 5.75 17.25 4.75
      vertex 5.78806 17.4413 4.75
    endloop
  endfacet
  facet normal 0 0 1
    outer loop
      vertex 5.75 17.25 4.75
      vertex 4.25 17.25 4.75
      vertex 5.78806 17.0587 4.75
    endloop
  endfacet
  facet normal -0 0 1
    outer loop
      vertex 5.48463 19.0978 4.75
      vertex 6.25 17.75 4.75
      vertex 6.25 19.25 4.75
    endloop
  endfacet
  facet normal 0 0 1
    outer loop
      vertex 7.66421 18.6642 4.75
      vertex 7.01537 19.0978 4.75
      vertex 6.44134 17.7119 4.75
    endloop
  endfacet
  facet normal 0 -0 1
    outer loop
      vertex 5.78806 17.4413 4.75
      vertex 5.89645 17.6036 4.75
      vertex 4.83579 18.6642 4.75
    endloop
  endfacet
  facet normal 0 -0 1
    outer loop
      vertex 6.44134 17.7119 4.75
      vertex 7.01537 19.0978 4.75
      vertex 6.25 19.25 4.75
    endloop
  endfacet
  facet normal 0 0 1
    outer loop
      vertex 5.48463 19.0978 4.75
      vertex 6.05866 17.7119 4.75
      vertex 6.25 17.75 4.75
    endloop
  endfacet
  facet normal 0 0 1
    outer loop
      vertex 6.05866 17.7119 4.75
      vertex 5.48463 19.0978 4.75
      vertex 5.89645 17.6036 4.75
    endloop
  endfacet
  facet normal 0 0 1
    outer loop
      vertex 7.66421 18.6642 4.75
      vertex 6.60355 17.6036 4.75
      vertex 8.09776 18.0154 4.75
    endloop
  endfacet
  facet normal 0 -0 1
    outer loop
      vertex 8.09776 16.4846 4.75
      vertex 8.25 17.25 4.75
      vertex 6.71194 17.0587 4.75
    endloop
  endfacet
  facet normal -0 0 1
    outer loop
      vertex 6.25 17.75 4.75
      vertex 6.44134 17.7119 4.75
      vertex 6.25 19.25 4.75
    endloop
  endfacet
  facet normal 0 0 1
    outer loop
      vertex 6.75 17.25 4.75
      vertex 8.25 17.25 4.75
      vertex 8.09776 18.0154 4.75
    endloop
  endfacet
  facet normal 0 0 1
    outer loop
      vertex 8.09776 18.0154 4.75
      vertex 6.60355 17.6036 4.75
      vertex 6.71194 17.4413 4.75
    endloop
  endfacet
  facet normal 0 -0 1
    outer loop
      vertex 6.60355 17.6036 4.75
      vertex 7.66421 18.6642 4.75
      vertex 6.44134 17.7119 4.75
    endloop
  endfacet
  facet normal 0 0 1
    outer loop
      vertex 8.09776 16.4846 4.75
      vertex 6.71194 17.0587 4.75
      vertex 7.66421 15.8358 4.75
    endloop
  endfacet
  facet normal 0 0 1
    outer loop
      vertex 6.25 15.25 4.75
      vertex 7.01537 15.4022 4.75
      vertex 6.25 16.75 4.75
    endloop
  endfacet
  facet normal -0 0 1
    outer loop
      vertex 6.71194 17.4413 4.75
      vertex 6.75 17.25 4.75
      vertex 8.09776 18.0154 4.75
    endloop
  endfacet
  facet normal 0 0 1
    outer loop
      vertex 6.60355 16.8964 4.75
      vertex 7.01537 15.4022 4.75
      vertex 7.66421 15.8358 4.75
    endloop
  endfacet
  facet normal 0 0 1
    outer loop
      vertex 7.66421 15.8358 4.75
      vertex 6.71194 17.0587 4.75
      vertex 6.60355 16.8964 4.75
    endloop
  endfacet
  facet normal 0 0 1
    outer loop
      vertex 6.71194 17.0587 4.75
      vertex 8.25 17.25 4.75
      vertex 6.75 17.25 4.75
    endloop
  endfacet
  facet normal 0 0 1
    outer loop
      vertex 7.01537 15.4022 4.75
      vertex 6.60355 16.8964 4.75
      vertex 6.44134 16.7881 4.75
    endloop
  endfacet
  facet normal 0 -0 1
    outer loop
      vertex 6.25 15.25 4.75
      vertex 6.25 16.75 4.75
      vertex 5.48463 15.4022 4.75
    endloop
  endfacet
  facet normal 0 0 1
    outer loop
      vertex 6.44134 16.7881 4.75
      vertex 6.25 16.75 4.75
      vertex 7.01537 15.4022 4.75
    endloop
  endfacet
  facet normal 0 0 1
    outer loop
      vertex 6.25 16.75 4.75
      vertex 6.05866 16.7881 4.75
      vertex 5.48463 15.4022 4.75
    endloop
  endfacet
  facet normal 0 0 1
    outer loop
      vertex 5.89645 16.8964 4.75
      vertex 4.83579 15.8358 4.75
      vertex 5.48463 15.4022 4.75
    endloop
  endfacet
  facet normal 0 0 1
    outer loop
      vertex 6.05866 16.7881 4.75
      vertex 5.89645 16.8964 4.75
      vertex 5.48463 15.4022 4.75
    endloop
  endfacet
  facet normal 0 0 1
    outer loop
      vertex 5.89645 16.8964 4.75
      vertex 4.40224 16.4846 4.75
      vertex 4.83579 15.8358 4.75
    endloop
  endfacet
  facet normal -0.19509 -0.980785 0
    outer loop
      vertex 6.25 15.25 2
      vertex 5.48463 15.4022 4.75
      vertex 5.48463 15.4022 2
    endloop
  endfacet
  facet normal -0.19509 -0.980785 0
    outer loop
      vertex 6.25 15.25 2
      vertex 6.25 15.25 4.75
      vertex 5.48463 15.4022 4.75
    endloop
  endfacet
  facet normal -0.55557 -0.83147 0
    outer loop
      vertex 5.48463 15.4022 2
      vertex 4.83579 15.8358 4.75
      vertex 4.83579 15.8358 2
    endloop
  endfacet
  facet normal -0.55557 -0.83147 0
    outer loop
      vertex 5.48463 15.4022 2
      vertex 5.48463 15.4022 4.75
      vertex 4.83579 15.8358 4.75
    endloop
  endfacet
  facet normal -0.83147 -0.55557 0
    outer loop
      vertex 4.83579 15.8358 4.75
      vertex 4.40224 16.4846 4.75
      vertex 4.40224 16.4846 2
    endloop
  endfacet
  facet normal -0.83147 -0.55557 0
    outer loop
      vertex 4.83579 15.8358 2
      vertex 4.83579 15.8358 4.75
      vertex 4.40224 16.4846 2
    endloop
  endfacet
  facet normal 0.980785 -0.19509 0
    outer loop
      vertex 8.25 17.25 2
      vertex 8.09776 16.4846 4.75
      vertex 8.09776 16.4846 2
    endloop
  endfacet
  facet normal 0.980785 -0.19509 0
    outer loop
      vertex 8.25 17.25 2
      vertex 8.25 17.25 4.75
      vertex 8.09776 16.4846 4.75
    endloop
  endfacet
  facet normal 0.55557 -0.83147 0
    outer loop
      vertex 7.66421 15.8358 2
      vertex 7.01537 15.4022 4.75
      vertex 7.01537 15.4022 2
    endloop
  endfacet
  facet normal 0.55557 -0.83147 0
    outer loop
      vertex 7.66421 15.8358 2
      vertex 7.66421 15.8358 4.75
      vertex 7.01537 15.4022 4.75
    endloop
  endfacet
  facet normal -0.55557 0.83147 0
    outer loop
      vertex 4.83579 18.6642 4.75
      vertex 5.48463 19.0978 2
      vertex 4.83579 18.6642 2
    endloop
  endfacet
  facet normal -0.55557 0.83147 0
    outer loop
      vertex 4.83579 18.6642 4.75
      vertex 5.48463 19.0978 4.75
      vertex 5.48463 19.0978 2
    endloop
  endfacet
  facet normal -0.19509 0.980785 0
    outer loop
      vertex 5.48463 19.0978 4.75
      vertex 6.25 19.25 2
      vertex 5.48463 19.0978 2
    endloop
  endfacet
  facet normal -0.19509 0.980785 0
    outer loop
      vertex 5.48463 19.0978 4.75
      vertex 6.25 19.25 4.75
      vertex 6.25 19.25 2
    endloop
  endfacet
  facet normal -0.83147 0.55557 0
    outer loop
      vertex 4.40224 18.0154 4.75
      vertex 4.83579 18.6642 2
      vertex 4.40224 18.0154 2
    endloop
  endfacet
  facet normal -0.83147 0.55557 0
    outer loop
      vertex 4.40224 18.0154 4.75
      vertex 4.83579 18.6642 4.75
      vertex 4.83579 18.6642 2
    endloop
  endfacet
  facet normal 0.980785 0.19509 -0
    outer loop
      vertex 5.75 17.25 2
      vertex 5.75 17.25 4.75
      vertex 5.78806 17.0587 4.75
    endloop
  endfacet
  facet normal 0.980785 0.19509 -0
    outer loop
      vertex 5.78806 17.0587 2
      vertex 5.75 17.25 2
      vertex 5.78806 17.0587 4.75
    endloop
  endfacet
  facet normal -0.980785 0.19509 0
    outer loop
      vertex 6.75 17.25 2
      vertex 6.71194 17.0587 4.75
      vertex 6.75 17.25 4.75
    endloop
  endfacet
  facet normal -0.980785 0.19509 0
    outer loop
      vertex 6.75 17.25 2
      vertex 6.71194 17.0587 2
      vertex 6.71194 17.0587 4.75
    endloop
  endfacet
  facet normal -0.55557 -0.83147 0
    outer loop
      vertex 6.44134 17.7119 4.75
      vertex 6.60355 17.6036 2
      vertex 6.60355 17.6036 4.75
    endloop
  endfacet
  facet normal -0.55557 -0.83147 -0
    outer loop
      vertex 6.44134 17.7119 4.75
      vertex 6.44134 17.7119 2
      vertex 6.60355 17.6036 2
    endloop
  endfacet
  facet normal 0.83147 0.55557 -0
    outer loop
      vertex 5.78806 17.0587 2
      vertex 5.78806 17.0587 4.75
      vertex 5.89645 16.8964 4.75
    endloop
  endfacet
  facet normal 0.83147 0.55557 -0
    outer loop
      vertex 5.89645 16.8964 2
      vertex 5.78806 17.0587 2
      vertex 5.89645 16.8964 4.75
    endloop
  endfacet
  facet normal -0.83147 -0.55557 0
    outer loop
      vertex 6.60355 17.6036 2
      vertex 6.71194 17.4413 2
      vertex 6.71194 17.4413 4.75
    endloop
  endfacet
  facet normal -0.83147 -0.55557 -0
    outer loop
      vertex 6.60355 17.6036 4.75
      vertex 6.60355 17.6036 2
      vertex 6.71194 17.4413 4.75
    endloop
  endfacet
  facet normal 0.980785 -0.19509 0
    outer loop
      vertex 5.75 17.25 4.75
      vertex 5.78806 17.4413 2
      vertex 5.78806 17.4413 4.75
    endloop
  endfacet
  facet normal 0.980785 -0.19509 0
    outer loop
      vertex 5.75 17.25 4.75
      vertex 5.75 17.25 2
      vertex 5.78806 17.4413 2
    endloop
  endfacet
  facet normal -0.19509 0.980785 0
    outer loop
      vertex 6.44134 16.7881 2
      vertex 6.25 16.75 4.75
      vertex 6.44134 16.7881 4.75
    endloop
  endfacet
  facet normal -0.19509 0.980785 0
    outer loop
      vertex 6.44134 16.7881 2
      vertex 6.25 16.75 2
      vertex 6.25 16.75 4.75
    endloop
  endfacet
  facet normal -0.83147 0.55557 0
    outer loop
      vertex 6.71194 17.0587 2
      vertex 6.60355 16.8964 4.75
      vertex 6.71194 17.0587 4.75
    endloop
  endfacet
  facet normal -0.83147 0.55557 0
    outer loop
      vertex 6.71194 17.0587 2
      vertex 6.60355 16.8964 2
      vertex 6.60355 16.8964 4.75
    endloop
  endfacet
  facet normal -0.55557 0.83147 0
    outer loop
      vertex 6.60355 16.8964 2
      vertex 6.44134 16.7881 4.75
      vertex 6.60355 16.8964 4.75
    endloop
  endfacet
  facet normal -0.55557 0.83147 0
    outer loop
      vertex 6.60355 16.8964 2
      vertex 6.44134 16.7881 2
      vertex 6.44134 16.7881 4.75
    endloop
  endfacet
  facet normal -0.19509 -0.980785 0
    outer loop
      vertex 6.25 17.75 4.75
      vertex 6.44134 17.7119 2
      vertex 6.44134 17.7119 4.75
    endloop
  endfacet
  facet normal -0.19509 -0.980785 -0
    outer loop
      vertex 6.25 17.75 4.75
      vertex 6.25 17.75 2
      vertex 6.44134 17.7119 2
    endloop
  endfacet
  facet normal 0.19509 -0.980785 0
    outer loop
      vertex 6.05866 17.7119 4.75
      vertex 6.25 17.75 2
      vertex 6.25 17.75 4.75
    endloop
  endfacet
  facet normal 0.19509 -0.980785 0
    outer loop
      vertex 6.05866 17.7119 4.75
      vertex 6.05866 17.7119 2
      vertex 6.25 17.75 2
    endloop
  endfacet
  facet normal 0.19509 0.980785 -0
    outer loop
      vertex 6.25 16.75 2
      vertex 6.05866 16.7881 4.75
      vertex 6.25 16.75 4.75
    endloop
  endfacet
  facet normal 0.19509 0.980785 0
    outer loop
      vertex 6.25 16.75 2
      vertex 6.05866 16.7881 2
      vertex 6.05866 16.7881 4.75
    endloop
  endfacet
  facet normal 0.55557 0.83147 -0
    outer loop
      vertex 6.05866 16.7881 2
      vertex 5.89645 16.8964 4.75
      vertex 6.05866 16.7881 4.75
    endloop
  endfacet
  facet normal 0.55557 0.83147 0
    outer loop
      vertex 6.05866 16.7881 2
      vertex 5.89645 16.8964 2
      vertex 5.89645 16.8964 4.75
    endloop
  endfacet
  facet normal -0.980785 -0.19509 0
    outer loop
      vertex 6.71194 17.4413 2
      vertex 6.75 17.25 2
      vertex 6.75 17.25 4.75
    endloop
  endfacet
  facet normal -0.980785 -0.19509 -0
    outer loop
      vertex 6.71194 17.4413 4.75
      vertex 6.71194 17.4413 2
      vertex 6.75 17.25 4.75
    endloop
  endfacet
  facet normal 0.83147 -0.55557 0
    outer loop
      vertex 5.78806 17.4413 4.75
      vertex 5.89645 17.6036 2
      vertex 5.89645 17.6036 4.75
    endloop
  endfacet
  facet normal 0.83147 -0.55557 0
    outer loop
      vertex 5.78806 17.4413 4.75
      vertex 5.78806 17.4413 2
      vertex 5.89645 17.6036 2
    endloop
  endfacet
  facet normal 0.55557 -0.83147 0
    outer loop
      vertex 5.89645 17.6036 4.75
      vertex 6.05866 17.7119 2
      vertex 6.05866 17.7119 4.75
    endloop
  endfacet
  facet normal 0.55557 -0.83147 0
    outer loop
      vertex 5.89645 17.6036 4.75
      vertex 5.89645 17.6036 2
      vertex 6.05866 17.7119 2
    endloop
  endfacet
  facet normal -0.980785 -0.19509 0
    outer loop
      vertex 29.9022 41.9846 4.75
      vertex 29.75 42.75 4.75
      vertex 29.75 42.75 2
    endloop
  endfacet
  facet normal -0.980785 -0.19509 0
    outer loop
      vertex 29.9022 41.9846 2
      vertex 29.9022 41.9846 4.75
      vertex 29.75 42.75 2
    endloop
  endfacet
  facet normal 0.19509 0.980785 0
    outer loop
      vertex 31.75 44.75 4.75
      vertex 32.5154 44.5978 2
      vertex 31.75 44.75 2
    endloop
  endfacet
  facet normal 0.19509 0.980785 0
    outer loop
      vertex 31.75 44.75 4.75
      vertex 32.5154 44.5978 4.75
      vertex 32.5154 44.5978 2
    endloop
  endfacet
  facet normal 0.19509 -0.980785 0
    outer loop
      vertex 32.5154 40.9022 2
      vertex 31.75 40.75 4.75
      vertex 31.75 40.75 2
    endloop
  endfacet
  facet normal 0.19509 -0.980785 0
    outer loop
      vertex 32.5154 40.9022 2
      vertex 32.5154 40.9022 4.75
      vertex 31.75 40.75 4.75
    endloop
  endfacet
  facet normal -0.980785 0.19509 0
    outer loop
      vertex 29.75 42.75 4.75
      vertex 29.9022 43.5154 2
      vertex 29.75 42.75 2
    endloop
  endfacet
  facet normal -0.980785 0.19509 0
    outer loop
      vertex 29.75 42.75 4.75
      vertex 29.9022 43.5154 4.75
      vertex 29.9022 43.5154 2
    endloop
  endfacet
  facet normal 0.83147 -0.55557 0
    outer loop
      vertex 33.5978 41.9846 2
      vertex 33.1642 41.3358 4.75
      vertex 33.1642 41.3358 2
    endloop
  endfacet
  facet normal 0.83147 -0.55557 0
    outer loop
      vertex 33.5978 41.9846 2
      vertex 33.5978 41.9846 4.75
      vertex 33.1642 41.3358 4.75
    endloop
  endfacet
  facet normal 0.83147 0.55557 0
    outer loop
      vertex 33.5978 43.5154 4.75
      vertex 33.5978 43.5154 2
      vertex 33.1642 44.1642 2
    endloop
  endfacet
  facet normal 0.83147 0.55557 0
    outer loop
      vertex 33.1642 44.1642 4.75
      vertex 33.5978 43.5154 4.75
      vertex 33.1642 44.1642 2
    endloop
  endfacet
  facet normal 0.980785 0.19509 0
    outer loop
      vertex 33.75 42.75 4.75
      vertex 33.75 42.75 2
      vertex 33.5978 43.5154 2
    endloop
  endfacet
  facet normal 0.980785 0.19509 0
    outer loop
      vertex 33.5978 43.5154 4.75
      vertex 33.75 42.75 4.75
      vertex 33.5978 43.5154 2
    endloop
  endfacet
  facet normal 0.55557 0.83147 0
    outer loop
      vertex 32.5154 44.5978 4.75
      vertex 33.1642 44.1642 2
      vertex 32.5154 44.5978 2
    endloop
  endfacet
  facet normal 0.55557 0.83147 0
    outer loop
      vertex 32.5154 44.5978 4.75
      vertex 33.1642 44.1642 4.75
      vertex 33.1642 44.1642 2
    endloop
  endfacet
  facet normal 0 0 1
    outer loop
      vertex 30.3358 44.1642 4.75
      vertex 29.9022 43.5154 4.75
      vertex 31.2881 42.9413 4.75
    endloop
  endfacet
  facet normal 0 -0 1
    outer loop
      vertex 29.9022 41.9846 4.75
      vertex 31.2881 42.5587 4.75
      vertex 29.75 42.75 4.75
    endloop
  endfacet
  facet normal 0 0 1
    outer loop
      vertex 31.3964 42.3964 4.75
      vertex 31.2881 42.5587 4.75
      vertex 29.9022 41.9846 4.75
    endloop
  endfacet
  facet normal 0 0 1
    outer loop
      vertex 30.9846 44.5978 4.75
      vertex 30.3358 44.1642 4.75
      vertex 31.3964 43.1036 4.75
    endloop
  endfacet
  facet normal 0 0 1
    outer loop
      vertex 31.2881 42.9413 4.75
      vertex 29.9022 43.5154 4.75
      vertex 29.75 42.75 4.75
    endloop
  endfacet
  facet normal 0 0 1
    outer loop
      vertex 29.75 42.75 4.75
      vertex 31.25 42.75 4.75
      vertex 31.2881 42.9413 4.75
    endloop
  endfacet
  facet normal 0 0 1
    outer loop
      vertex 31.25 42.75 4.75
      vertex 29.75 42.75 4.75
      vertex 31.2881 42.5587 4.75
    endloop
  endfacet
  facet normal -0 0 1
    outer loop
      vertex 30.9846 44.5978 4.75
      vertex 31.75 43.25 4.75
      vertex 31.75 44.75 4.75
    endloop
  endfacet
  facet normal 0 0 1
    outer loop
      vertex 33.1642 44.1642 4.75
      vertex 32.5154 44.5978 4.75
      vertex 31.9413 43.2119 4.75
    endloop
  endfacet
  facet normal 0 -0 1
    outer loop
      vertex 31.2881 42.9413 4.75
      vertex 31.3964 43.1036 4.75
      vertex 30.3358 44.1642 4.75
    endloop
  endfacet
  facet normal 0 -0 1
    outer loop
      vertex 31.9413 43.2119 4.75
      vertex 32.5154 44.5978 4.75
      vertex 31.75 44.75 4.75
    endloop
  endfacet
  facet normal 0 0 1
    outer loop
      vertex 30.9846 44.5978 4.75
      vertex 31.5587 43.2119 4.75
      vertex 31.75 43.25 4.75
    endloop
  endfacet
  facet normal 0 0 1
    outer loop
      vertex 31.5587 43.2119 4.75
      vertex 30.9846 44.5978 4.75
      vertex 31.3964 43.1036 4.75
    endloop
  endfacet
  facet normal 0 0 1
    outer loop
      vertex 33.1642 44.1642 4.75
      vertex 32.1036 43.1036 4.75
      vertex 33.5978 43.5154 4.75
    endloop
  endfacet
  facet normal 0 -0 1
    outer loop
      vertex 33.5978 41.9846 4.75
      vertex 33.75 42.75 4.75
      vertex 32.2119 42.5587 4.75
    endloop
  endfacet
  facet normal -0 0 1
    outer loop
      vertex 31.75 43.25 4.75
      vertex 31.9413 43.2119 4.75
      vertex 31.75 44.75 4.75
    endloop
  endfacet
  facet normal 0 0 1
    outer loop
      vertex 32.25 42.75 4.75
      vertex 33.75 42.75 4.75
      vertex 33.5978 43.5154 4.75
    endloop
  endfacet
  facet normal 0 0 1
    outer loop
      vertex 33.5978 43.5154 4.75
      vertex 32.1036 43.1036 4.75
      vertex 32.2119 42.9413 4.75
    endloop
  endfacet
  facet normal 0 -0 1
    outer loop
      vertex 32.1036 43.1036 4.75
      vertex 33.1642 44.1642 4.75
      vertex 31.9413 43.2119 4.75
    endloop
  endfacet
  facet normal 0 0 1
    outer loop
      vertex 33.5978 41.9846 4.75
      vertex 32.2119 42.5587 4.75
      vertex 33.1642 41.3358 4.75
    endloop
  endfacet
  facet normal 0 0 1
    outer loop
      vertex 31.75 40.75 4.75
      vertex 32.5154 40.9022 4.75
      vertex 31.75 42.25 4.75
    endloop
  endfacet
  facet normal -0 0 1
    outer loop
      vertex 32.2119 42.9413 4.75
      vertex 32.25 42.75 4.75
      vertex 33.5978 43.5154 4.75
    endloop
  endfacet
  facet normal 0 0 1
    outer loop
      vertex 32.1036 42.3964 4.75
      vertex 32.5154 40.9022 4.75
      vertex 33.1642 41.3358 4.75
    endloop
  endfacet
  facet normal 0 0 1
    outer loop
      vertex 33.1642 41.3358 4.75
      vertex 32.2119 42.5587 4.75
      vertex 32.1036 42.3964 4.75
    endloop
  endfacet
  facet normal 0 0 1
    outer loop
      vertex 32.2119 42.5587 4.75
      vertex 33.75 42.75 4.75
      vertex 32.25 42.75 4.75
    endloop
  endfacet
  facet normal 0 0 1
    outer loop
      vertex 32.5154 40.9022 4.75
      vertex 32.1036 42.3964 4.75
      vertex 31.9413 42.2881 4.75
    endloop
  endfacet
  facet normal 0 -0 1
    outer loop
      vertex 31.75 40.75 4.75
      vertex 31.75 42.25 4.75
      vertex 30.9846 40.9022 4.75
    endloop
  endfacet
  facet normal 0 0 1
    outer loop
      vertex 31.9413 42.2881 4.75
      vertex 31.75 42.25 4.75
      vertex 32.5154 40.9022 4.75
    endloop
  endfacet
  facet normal 0 0 1
    outer loop
      vertex 31.75 42.25 4.75
      vertex 31.5587 42.2881 4.75
      vertex 30.9846 40.9022 4.75
    endloop
  endfacet
  facet normal 0 0 1
    outer loop
      vertex 31.3964 42.3964 4.75
      vertex 30.3358 41.3358 4.75
      vertex 30.9846 40.9022 4.75
    endloop
  endfacet
  facet normal 0 0 1
    outer loop
      vertex 31.5587 42.2881 4.75
      vertex 31.3964 42.3964 4.75
      vertex 30.9846 40.9022 4.75
    endloop
  endfacet
  facet normal 0 0 1
    outer loop
      vertex 31.3964 42.3964 4.75
      vertex 29.9022 41.9846 4.75
      vertex 30.3358 41.3358 4.75
    endloop
  endfacet
  facet normal -0.19509 -0.980785 0
    outer loop
      vertex 31.75 40.75 2
      vertex 30.9846 40.9022 4.75
      vertex 30.9846 40.9022 2
    endloop
  endfacet
  facet normal -0.19509 -0.980785 0
    outer loop
      vertex 31.75 40.75 2
      vertex 31.75 40.75 4.75
      vertex 30.9846 40.9022 4.75
    endloop
  endfacet
  facet normal -0.55557 -0.83147 0
    outer loop
      vertex 30.9846 40.9022 2
      vertex 30.3358 41.3358 4.75
      vertex 30.3358 41.3358 2
    endloop
  endfacet
  facet normal -0.55557 -0.83147 0
    outer loop
      vertex 30.9846 40.9022 2
      vertex 30.9846 40.9022 4.75
      vertex 30.3358 41.3358 4.75
    endloop
  endfacet
  facet normal -0.83147 -0.55557 0
    outer loop
      vertex 30.3358 41.3358 4.75
      vertex 29.9022 41.9846 4.75
      vertex 29.9022 41.9846 2
    endloop
  endfacet
  facet normal -0.83147 -0.55557 0
    outer loop
      vertex 30.3358 41.3358 2
      vertex 30.3358 41.3358 4.75
      vertex 29.9022 41.9846 2
    endloop
  endfacet
  facet normal 0.980785 -0.19509 0
    outer loop
      vertex 33.75 42.75 2
      vertex 33.5978 41.9846 4.75
      vertex 33.5978 41.9846 2
    endloop
  endfacet
  facet normal 0.980785 -0.19509 0
    outer loop
      vertex 33.75 42.75 2
      vertex 33.75 42.75 4.75
      vertex 33.5978 41.9846 4.75
    endloop
  endfacet
  facet normal 0.55557 -0.83147 0
    outer loop
      vertex 33.1642 41.3358 2
      vertex 32.5154 40.9022 4.75
      vertex 32.5154 40.9022 2
    endloop
  endfacet
  facet normal 0.55557 -0.83147 0
    outer loop
      vertex 33.1642 41.3358 2
      vertex 33.1642 41.3358 4.75
      vertex 32.5154 40.9022 4.75
    endloop
  endfacet
  facet normal -0.55557 0.83147 0
    outer loop
      vertex 30.3358 44.1642 4.75
      vertex 30.9846 44.5978 2
      vertex 30.3358 44.1642 2
    endloop
  endfacet
  facet normal -0.55557 0.83147 0
    outer loop
      vertex 30.3358 44.1642 4.75
      vertex 30.9846 44.5978 4.75
      vertex 30.9846 44.5978 2
    endloop
  endfacet
  facet normal -0.19509 0.980785 0
    outer loop
      vertex 30.9846 44.5978 4.75
      vertex 31.75 44.75 2
      vertex 30.9846 44.5978 2
    endloop
  endfacet
  facet normal -0.19509 0.980785 0
    outer loop
      vertex 30.9846 44.5978 4.75
      vertex 31.75 44.75 4.75
      vertex 31.75 44.75 2
    endloop
  endfacet
  facet normal -0.83147 0.55557 0
    outer loop
      vertex 29.9022 43.5154 4.75
      vertex 30.3358 44.1642 2
      vertex 29.9022 43.5154 2
    endloop
  endfacet
  facet normal -0.83147 0.55557 0
    outer loop
      vertex 29.9022 43.5154 4.75
      vertex 30.3358 44.1642 4.75
      vertex 30.3358 44.1642 2
    endloop
  endfacet
  facet normal 0.980785 0.19509 -0
    outer loop
      vertex 31.25 42.75 2
      vertex 31.25 42.75 4.75
      vertex 31.2881 42.5587 4.75
    endloop
  endfacet
  facet normal 0.980785 0.19509 -0
    outer loop
      vertex 31.2881 42.5587 2
      vertex 31.25 42.75 2
      vertex 31.2881 42.5587 4.75
    endloop
  endfacet
  facet normal -0.980785 0.19509 0
    outer loop
      vertex 32.25 42.75 2
      vertex 32.2119 42.5587 4.75
      vertex 32.25 42.75 4.75
    endloop
  endfacet
  facet normal -0.980785 0.19509 0
    outer loop
      vertex 32.25 42.75 2
      vertex 32.2119 42.5587 2
      vertex 32.2119 42.5587 4.75
    endloop
  endfacet
  facet normal -0.55557 -0.83147 0
    outer loop
      vertex 31.9413 43.2119 4.75
      vertex 32.1036 43.1036 2
      vertex 32.1036 43.1036 4.75
    endloop
  endfacet
  facet normal -0.55557 -0.83147 -0
    outer loop
      vertex 31.9413 43.2119 4.75
      vertex 31.9413 43.2119 2
      vertex 32.1036 43.1036 2
    endloop
  endfacet
  facet normal 0.83147 0.55557 -0
    outer loop
      vertex 31.2881 42.5587 2
      vertex 31.2881 42.5587 4.75
      vertex 31.3964 42.3964 4.75
    endloop
  endfacet
  facet normal 0.83147 0.55557 -0
    outer loop
      vertex 31.3964 42.3964 2
      vertex 31.2881 42.5587 2
      vertex 31.3964 42.3964 4.75
    endloop
  endfacet
  facet normal -0.83147 -0.55557 0
    outer loop
      vertex 32.1036 43.1036 2
      vertex 32.2119 42.9413 2
      vertex 32.2119 42.9413 4.75
    endloop
  endfacet
  facet normal -0.83147 -0.55557 -0
    outer loop
      vertex 32.1036 43.1036 4.75
      vertex 32.1036 43.1036 2
      vertex 32.2119 42.9413 4.75
    endloop
  endfacet
  facet normal 0.980785 -0.19509 0
    outer loop
      vertex 31.25 42.75 4.75
      vertex 31.2881 42.9413 2
      vertex 31.2881 42.9413 4.75
    endloop
  endfacet
  facet normal 0.980785 -0.19509 0
    outer loop
      vertex 31.25 42.75 4.75
      vertex 31.25 42.75 2
      vertex 31.2881 42.9413 2
    endloop
  endfacet
  facet normal -0.19509 0.980785 0
    outer loop
      vertex 31.9413 42.2881 2
      vertex 31.75 42.25 4.75
      vertex 31.9413 42.2881 4.75
    endloop
  endfacet
  facet normal -0.19509 0.980785 0
    outer loop
      vertex 31.9413 42.2881 2
      vertex 31.75 42.25 2
      vertex 31.75 42.25 4.75
    endloop
  endfacet
  facet normal -0.83147 0.55557 0
    outer loop
      vertex 32.2119 42.5587 2
      vertex 32.1036 42.3964 4.75
      vertex 32.2119 42.5587 4.75
    endloop
  endfacet
  facet normal -0.83147 0.55557 0
    outer loop
      vertex 32.2119 42.5587 2
      vertex 32.1036 42.3964 2
      vertex 32.1036 42.3964 4.75
    endloop
  endfacet
  facet normal -0.55557 0.83147 0
    outer loop
      vertex 32.1036 42.3964 2
      vertex 31.9413 42.2881 4.75
      vertex 32.1036 42.3964 4.75
    endloop
  endfacet
  facet normal -0.55557 0.83147 0
    outer loop
      vertex 32.1036 42.3964 2
      vertex 31.9413 42.2881 2
      vertex 31.9413 42.2881 4.75
    endloop
  endfacet
  facet normal -0.19509 -0.980785 0
    outer loop
      vertex 31.75 43.25 4.75
      vertex 31.9413 43.2119 2
      vertex 31.9413 43.2119 4.75
    endloop
  endfacet
  facet normal -0.19509 -0.980785 -0
    outer loop
      vertex 31.75 43.25 4.75
      vertex 31.75 43.25 2
      vertex 31.9413 43.2119 2
    endloop
  endfacet
  facet normal 0.19509 -0.980785 0
    outer loop
      vertex 31.5587 43.2119 4.75
      vertex 31.75 43.25 2
      vertex 31.75 43.25 4.75
    endloop
  endfacet
  facet normal 0.19509 -0.980785 0
    outer loop
      vertex 31.5587 43.2119 4.75
      vertex 31.5587 43.2119 2
      vertex 31.75 43.25 2
    endloop
  endfacet
  facet normal 0.19509 0.980785 -0
    outer loop
      vertex 31.75 42.25 2
      vertex 31.5587 42.2881 4.75
      vertex 31.75 42.25 4.75
    endloop
  endfacet
  facet normal 0.19509 0.980785 0
    outer loop
      vertex 31.75 42.25 2
      vertex 31.5587 42.2881 2
      vertex 31.5587 42.2881 4.75
    endloop
  endfacet
  facet normal 0.55557 0.83147 -0
    outer loop
      vertex 31.5587 42.2881 2
      vertex 31.3964 42.3964 4.75
      vertex 31.5587 42.2881 4.75
    endloop
  endfacet
  facet normal 0.55557 0.83147 0
    outer loop
      vertex 31.5587 42.2881 2
      vertex 31.3964 42.3964 2
      vertex 31.3964 42.3964 4.75
    endloop
  endfacet
  facet normal -0.980785 -0.19509 0
    outer loop
      vertex 32.2119 42.9413 2
      vertex 32.25 42.75 2
      vertex 32.25 42.75 4.75
    endloop
  endfacet
  facet normal -0.980785 -0.19509 -0
    outer loop
      vertex 32.2119 42.9413 4.75
      vertex 32.2119 42.9413 2
      vertex 32.25 42.75 4.75
    endloop
  endfacet
  facet normal 0.83147 -0.55557 0
    outer loop
      vertex 31.2881 42.9413 4.75
      vertex 31.3964 43.1036 2
      vertex 31.3964 43.1036 4.75
    endloop
  endfacet
  facet normal 0.83147 -0.55557 0
    outer loop
      vertex 31.2881 42.9413 4.75
      vertex 31.2881 42.9413 2
      vertex 31.3964 43.1036 2
    endloop
  endfacet
  facet normal 0.55557 -0.83147 0
    outer loop
      vertex 31.3964 43.1036 4.75
      vertex 31.5587 43.2119 2
      vertex 31.5587 43.2119 4.75
    endloop
  endfacet
  facet normal 0.55557 -0.83147 0
    outer loop
      vertex 31.3964 43.1036 4.75
      vertex 31.3964 43.1036 2
      vertex 31.5587 43.2119 2
    endloop
  endfacet
  facet normal -0.980785 -0.19509 0
    outer loop
      vertex 29.9022 16.4846 4.75
      vertex 29.75 17.25 4.75
      vertex 29.75 17.25 2
    endloop
  endfacet
  facet normal -0.980785 -0.19509 0
    outer loop
      vertex 29.9022 16.4846 2
      vertex 29.9022 16.4846 4.75
      vertex 29.75 17.25 2
    endloop
  endfacet
  facet normal 0.19509 0.980785 0
    outer loop
      vertex 31.75 19.25 4.75
      vertex 32.5154 19.0978 2
      vertex 31.75 19.25 2
    endloop
  endfacet
  facet normal 0.19509 0.980785 0
    outer loop
      vertex 31.75 19.25 4.75
      vertex 32.5154 19.0978 4.75
      vertex 32.5154 19.0978 2
    endloop
  endfacet
  facet normal 0.19509 -0.980785 0
    outer loop
      vertex 32.5154 15.4022 2
      vertex 31.75 15.25 4.75
      vertex 31.75 15.25 2
    endloop
  endfacet
  facet normal 0.19509 -0.980785 0
    outer loop
      vertex 32.5154 15.4022 2
      vertex 32.5154 15.4022 4.75
      vertex 31.75 15.25 4.75
    endloop
  endfacet
  facet normal -0.980785 0.19509 0
    outer loop
      vertex 29.75 17.25 4.75
      vertex 29.9022 18.0154 2
      vertex 29.75 17.25 2
    endloop
  endfacet
  facet normal -0.980785 0.19509 0
    outer loop
      vertex 29.75 17.25 4.75
      vertex 29.9022 18.0154 4.75
      vertex 29.9022 18.0154 2
    endloop
  endfacet
  facet normal 0.83147 -0.55557 0
    outer loop
      vertex 33.5978 16.4846 2
      vertex 33.1642 15.8358 4.75
      vertex 33.1642 15.8358 2
    endloop
  endfacet
  facet normal 0.83147 -0.55557 0
    outer loop
      vertex 33.5978 16.4846 2
      vertex 33.5978 16.4846 4.75
      vertex 33.1642 15.8358 4.75
    endloop
  endfacet
  facet normal 0.83147 0.55557 0
    outer loop
      vertex 33.5978 18.0154 4.75
      vertex 33.5978 18.0154 2
      vertex 33.1642 18.6642 2
    endloop
  endfacet
  facet normal 0.83147 0.55557 0
    outer loop
      vertex 33.1642 18.6642 4.75
      vertex 33.5978 18.0154 4.75
      vertex 33.1642 18.6642 2
    endloop
  endfacet
  facet normal 0.980785 0.19509 0
    outer loop
      vertex 33.75 17.25 4.75
      vertex 33.75 17.25 2
      vertex 33.5978 18.0154 2
    endloop
  endfacet
  facet normal 0.980785 0.19509 0
    outer loop
      vertex 33.5978 18.0154 4.75
      vertex 33.75 17.25 4.75
      vertex 33.5978 18.0154 2
    endloop
  endfacet
  facet normal 0.55557 0.83147 0
    outer loop
      vertex 32.5154 19.0978 4.75
      vertex 33.1642 18.6642 2
      vertex 32.5154 19.0978 2
    endloop
  endfacet
  facet normal 0.55557 0.83147 0
    outer loop
      vertex 32.5154 19.0978 4.75
      vertex 33.1642 18.6642 4.75
      vertex 33.1642 18.6642 2
    endloop
  endfacet
  facet normal 0 0 1
    outer loop
      vertex 30.3358 18.6642 4.75
      vertex 29.9022 18.0154 4.75
      vertex 31.2881 17.4413 4.75
    endloop
  endfacet
  facet normal 0 -0 1
    outer loop
      vertex 29.9022 16.4846 4.75
      vertex 31.2881 17.0587 4.75
      vertex 29.75 17.25 4.75
    endloop
  endfacet
  facet normal 0 0 1
    outer loop
      vertex 31.3964 16.8964 4.75
      vertex 31.2881 17.0587 4.75
      vertex 29.9022 16.4846 4.75
    endloop
  endfacet
  facet normal 0 0 1
    outer loop
      vertex 30.9846 19.0978 4.75
      vertex 30.3358 18.6642 4.75
      vertex 31.3964 17.6036 4.75
    endloop
  endfacet
  facet normal 0 0 1
    outer loop
      vertex 31.2881 17.4413 4.75
      vertex 29.9022 18.0154 4.75
      vertex 29.75 17.25 4.75
    endloop
  endfacet
  facet normal 0 0 1
    outer loop
      vertex 29.75 17.25 4.75
      vertex 31.25 17.25 4.75
      vertex 31.2881 17.4413 4.75
    endloop
  endfacet
  facet normal 0 0 1
    outer loop
      vertex 31.25 17.25 4.75
      vertex 29.75 17.25 4.75
      vertex 31.2881 17.0587 4.75
    endloop
  endfacet
  facet normal -0 0 1
    outer loop
      vertex 30.9846 19.0978 4.75
      vertex 31.75 17.75 4.75
      vertex 31.75 19.25 4.75
    endloop
  endfacet
  facet normal 0 0 1
    outer loop
      vertex 33.1642 18.6642 4.75
      vertex 32.5154 19.0978 4.75
      vertex 31.9413 17.7119 4.75
    endloop
  endfacet
  facet normal 0 -0 1
    outer loop
      vertex 31.2881 17.4413 4.75
      vertex 31.3964 17.6036 4.75
      vertex 30.3358 18.6642 4.75
    endloop
  endfacet
  facet normal 0 -0 1
    outer loop
      vertex 31.9413 17.7119 4.75
      vertex 32.5154 19.0978 4.75
      vertex 31.75 19.25 4.75
    endloop
  endfacet
  facet normal 0 0 1
    outer loop
      vertex 30.9846 19.0978 4.75
      vertex 31.5587 17.7119 4.75
      vertex 31.75 17.75 4.75
    endloop
  endfacet
  facet normal 0 0 1
    outer loop
      vertex 31.5587 17.7119 4.75
      vertex 30.9846 19.0978 4.75
      vertex 31.3964 17.6036 4.75
    endloop
  endfacet
  facet normal 0 0 1
    outer loop
      vertex 33.1642 18.6642 4.75
      vertex 32.1036 17.6036 4.75
      vertex 33.5978 18.0154 4.75
    endloop
  endfacet
  facet normal 0 -0 1
    outer loop
      vertex 33.5978 16.4846 4.75
      vertex 33.75 17.25 4.75
      vertex 32.2119 17.0587 4.75
    endloop
  endfacet
  facet normal -0 0 1
    outer loop
      vertex 31.75 17.75 4.75
      vertex 31.9413 17.7119 4.75
      vertex 31.75 19.25 4.75
    endloop
  endfacet
  facet normal 0 0 1
    outer loop
      vertex 32.25 17.25 4.75
      vertex 33.75 17.25 4.75
      vertex 33.5978 18.0154 4.75
    endloop
  endfacet
  facet normal 0 0 1
    outer loop
      vertex 33.5978 18.0154 4.75
      vertex 32.1036 17.6036 4.75
      vertex 32.2119 17.4413 4.75
    endloop
  endfacet
  facet normal 0 -0 1
    outer loop
      vertex 32.1036 17.6036 4.75
      vertex 33.1642 18.6642 4.75
      vertex 31.9413 17.7119 4.75
    endloop
  endfacet
  facet normal 0 0 1
    outer loop
      vertex 33.5978 16.4846 4.75
      vertex 32.2119 17.0587 4.75
      vertex 33.1642 15.8358 4.75
    endloop
  endfacet
  facet normal 0 0 1
    outer loop
      vertex 31.75 15.25 4.75
      vertex 32.5154 15.4022 4.75
      vertex 31.75 16.75 4.75
    endloop
  endfacet
  facet normal -0 0 1
    outer loop
      vertex 32.2119 17.4413 4.75
      vertex 32.25 17.25 4.75
      vertex 33.5978 18.0154 4.75
    endloop
  endfacet
  facet normal 0 0 1
    outer loop
      vertex 32.1036 16.8964 4.75
      vertex 32.5154 15.4022 4.75
      vertex 33.1642 15.8358 4.75
    endloop
  endfacet
  facet normal 0 0 1
    outer loop
      vertex 33.1642 15.8358 4.75
      vertex 32.2119 17.0587 4.75
      vertex 32.1036 16.8964 4.75
    endloop
  endfacet
  facet normal 0 0 1
    outer loop
      vertex 32.2119 17.0587 4.75
      vertex 33.75 17.25 4.75
      vertex 32.25 17.25 4.75
    endloop
  endfacet
  facet normal 0 0 1
    outer loop
      vertex 32.5154 15.4022 4.75
      vertex 32.1036 16.8964 4.75
      vertex 31.9413 16.7881 4.75
    endloop
  endfacet
  facet normal 0 -0 1
    outer loop
      vertex 31.75 15.25 4.75
      vertex 31.75 16.75 4.75
      vertex 30.9846 15.4022 4.75
    endloop
  endfacet
  facet normal 0 0 1
    outer loop
      vertex 31.9413 16.7881 4.75
      vertex 31.75 16.75 4.75
      vertex 32.5154 15.4022 4.75
    endloop
  endfacet
  facet normal 0 0 1
    outer loop
      vertex 31.75 16.75 4.75
      vertex 31.5587 16.7881 4.75
      vertex 30.9846 15.4022 4.75
    endloop
  endfacet
  facet normal 0 0 1
    outer loop
      vertex 31.3964 16.8964 4.75
      vertex 30.3358 15.8358 4.75
      vertex 30.9846 15.4022 4.75
    endloop
  endfacet
  facet normal 0 0 1
    outer loop
      vertex 31.5587 16.7881 4.75
      vertex 31.3964 16.8964 4.75
      vertex 30.9846 15.4022 4.75
    endloop
  endfacet
  facet normal 0 0 1
    outer loop
      vertex 31.3964 16.8964 4.75
      vertex 29.9022 16.4846 4.75
      vertex 30.3358 15.8358 4.75
    endloop
  endfacet
  facet normal -0.19509 -0.980785 0
    outer loop
      vertex 31.75 15.25 2
      vertex 30.9846 15.4022 4.75
      vertex 30.9846 15.4022 2
    endloop
  endfacet
  facet normal -0.19509 -0.980785 0
    outer loop
      vertex 31.75 15.25 2
      vertex 31.75 15.25 4.75
      vertex 30.9846 15.4022 4.75
    endloop
  endfacet
  facet normal -0.55557 -0.83147 0
    outer loop
      vertex 30.9846 15.4022 2
      vertex 30.3358 15.8358 4.75
      vertex 30.3358 15.8358 2
    endloop
  endfacet
  facet normal -0.55557 -0.83147 0
    outer loop
      vertex 30.9846 15.4022 2
      vertex 30.9846 15.4022 4.75
      vertex 30.3358 15.8358 4.75
    endloop
  endfacet
  facet normal -0.83147 -0.55557 0
    outer loop
      vertex 30.3358 15.8358 4.75
      vertex 29.9022 16.4846 4.75
      vertex 29.9022 16.4846 2
    endloop
  endfacet
  facet normal -0.83147 -0.55557 0
    outer loop
      vertex 30.3358 15.8358 2
      vertex 30.3358 15.8358 4.75
      vertex 29.9022 16.4846 2
    endloop
  endfacet
  facet normal 0.980785 -0.19509 0
    outer loop
      vertex 33.75 17.25 2
      vertex 33.5978 16.4846 4.75
      vertex 33.5978 16.4846 2
    endloop
  endfacet
  facet normal 0.980785 -0.19509 0
    outer loop
      vertex 33.75 17.25 2
      vertex 33.75 17.25 4.75
      vertex 33.5978 16.4846 4.75
    endloop
  endfacet
  facet normal 0.55557 -0.83147 0
    outer loop
      vertex 33.1642 15.8358 2
      vertex 32.5154 15.4022 4.75
      vertex 32.5154 15.4022 2
    endloop
  endfacet
  facet normal 0.55557 -0.83147 0
    outer loop
      vertex 33.1642 15.8358 2
      vertex 33.1642 15.8358 4.75
      vertex 32.5154 15.4022 4.75
    endloop
  endfacet
  facet normal -0.55557 0.83147 0
    outer loop
      vertex 30.3358 18.6642 4.75
      vertex 30.9846 19.0978 2
      vertex 30.3358 18.6642 2
    endloop
  endfacet
  facet normal -0.55557 0.83147 0
    outer loop
      vertex 30.3358 18.6642 4.75
      vertex 30.9846 19.0978 4.75
      vertex 30.9846 19.0978 2
    endloop
  endfacet
  facet normal -0.19509 0.980785 0
    outer loop
      vertex 30.9846 19.0978 4.75
      vertex 31.75 19.25 2
      vertex 30.9846 19.0978 2
    endloop
  endfacet
  facet normal -0.19509 0.980785 0
    outer loop
      vertex 30.9846 19.0978 4.75
      vertex 31.75 19.25 4.75
      vertex 31.75 19.25 2
    endloop
  endfacet
  facet normal -0.83147 0.55557 0
    outer loop
      vertex 29.9022 18.0154 4.75
      vertex 30.3358 18.6642 2
      vertex 29.9022 18.0154 2
    endloop
  endfacet
  facet normal -0.83147 0.55557 0
    outer loop
      vertex 29.9022 18.0154 4.75
      vertex 30.3358 18.6642 4.75
      vertex 30.3358 18.6642 2
    endloop
  endfacet
  facet normal 0.980785 0.19509 -0
    outer loop
      vertex 31.25 17.25 2
      vertex 31.25 17.25 4.75
      vertex 31.2881 17.0587 4.75
    endloop
  endfacet
  facet normal 0.980785 0.19509 -0
    outer loop
      vertex 31.2881 17.0587 2
      vertex 31.25 17.25 2
      vertex 31.2881 17.0587 4.75
    endloop
  endfacet
  facet normal -0.980785 0.19509 0
    outer loop
      vertex 32.25 17.25 2
      vertex 32.2119 17.0587 4.75
      vertex 32.25 17.25 4.75
    endloop
  endfacet
  facet normal -0.980785 0.19509 0
    outer loop
      vertex 32.25 17.25 2
      vertex 32.2119 17.0587 2
      vertex 32.2119 17.0587 4.75
    endloop
  endfacet
  facet normal -0.55557 -0.83147 0
    outer loop
      vertex 31.9413 17.7119 4.75
      vertex 32.1036 17.6036 2
      vertex 32.1036 17.6036 4.75
    endloop
  endfacet
  facet normal -0.55557 -0.83147 -0
    outer loop
      vertex 31.9413 17.7119 4.75
      vertex 31.9413 17.7119 2
      vertex 32.1036 17.6036 2
    endloop
  endfacet
  facet normal 0.83147 0.55557 -0
    outer loop
      vertex 31.2881 17.0587 2
      vertex 31.2881 17.0587 4.75
      vertex 31.3964 16.8964 4.75
    endloop
  endfacet
  facet normal 0.83147 0.55557 -0
    outer loop
      vertex 31.3964 16.8964 2
      vertex 31.2881 17.0587 2
      vertex 31.3964 16.8964 4.75
    endloop
  endfacet
  facet normal -0.83147 -0.55557 0
    outer loop
      vertex 32.1036 17.6036 2
      vertex 32.2119 17.4413 2
      vertex 32.2119 17.4413 4.75
    endloop
  endfacet
  facet normal -0.83147 -0.55557 -0
    outer loop
      vertex 32.1036 17.6036 4.75
      vertex 32.1036 17.6036 2
      vertex 32.2119 17.4413 4.75
    endloop
  endfacet
  facet normal 0.980785 -0.19509 0
    outer loop
      vertex 31.25 17.25 4.75
      vertex 31.2881 17.4413 2
      vertex 31.2881 17.4413 4.75
    endloop
  endfacet
  facet normal 0.980785 -0.19509 0
    outer loop
      vertex 31.25 17.25 4.75
      vertex 31.25 17.25 2
      vertex 31.2881 17.4413 2
    endloop
  endfacet
  facet normal -0.19509 0.980785 0
    outer loop
      vertex 31.9413 16.7881 2
      vertex 31.75 16.75 4.75
      vertex 31.9413 16.7881 4.75
    endloop
  endfacet
  facet normal -0.19509 0.980785 0
    outer loop
      vertex 31.9413 16.7881 2
      vertex 31.75 16.75 2
      vertex 31.75 16.75 4.75
    endloop
  endfacet
  facet normal -0.83147 0.55557 0
    outer loop
      vertex 32.2119 17.0587 2
      vertex 32.1036 16.8964 4.75
      vertex 32.2119 17.0587 4.75
    endloop
  endfacet
  facet normal -0.83147 0.55557 0
    outer loop
      vertex 32.2119 17.0587 2
      vertex 32.1036 16.8964 2
      vertex 32.1036 16.8964 4.75
    endloop
  endfacet
  facet normal -0.55557 0.83147 0
    outer loop
      vertex 32.1036 16.8964 2
      vertex 31.9413 16.7881 4.75
      vertex 32.1036 16.8964 4.75
    endloop
  endfacet
  facet normal -0.55557 0.83147 0
    outer loop
      vertex 32.1036 16.8964 2
      vertex 31.9413 16.7881 2
      vertex 31.9413 16.7881 4.75
    endloop
  endfacet
  facet normal -0.19509 -0.980785 0
    outer loop
      vertex 31.75 17.75 4.75
      vertex 31.9413 17.7119 2
      vertex 31.9413 17.7119 4.75
    endloop
  endfacet
  facet normal -0.19509 -0.980785 -0
    outer loop
      vertex 31.75 17.75 4.75
      vertex 31.75 17.75 2
      vertex 31.9413 17.7119 2
    endloop
  endfacet
  facet normal 0.19509 -0.980785 0
    outer loop
      vertex 31.5587 17.7119 4.75
      vertex 31.75 17.75 2
      vertex 31.75 17.75 4.75
    endloop
  endfacet
  facet normal 0.19509 -0.980785 0
    outer loop
      vertex 31.5587 17.7119 4.75
      vertex 31.5587 17.7119 2
      vertex 31.75 17.75 2
    endloop
  endfacet
  facet normal 0.19509 0.980785 -0
    outer loop
      vertex 31.75 16.75 2
      vertex 31.5587 16.7881 4.75
      vertex 31.75 16.75 4.75
    endloop
  endfacet
  facet normal 0.19509 0.980785 0
    outer loop
      vertex 31.75 16.75 2
      vertex 31.5587 16.7881 2
      vertex 31.5587 16.7881 4.75
    endloop
  endfacet
  facet normal 0.55557 0.83147 -0
    outer loop
      vertex 31.5587 16.7881 2
      vertex 31.3964 16.8964 4.75
      vertex 31.5587 16.7881 4.75
    endloop
  endfacet
  facet normal 0.55557 0.83147 0
    outer loop
      vertex 31.5587 16.7881 2
      vertex 31.3964 16.8964 2
      vertex 31.3964 16.8964 4.75
    endloop
  endfacet
  facet normal -0.980785 -0.19509 0
    outer loop
      vertex 32.2119 17.4413 2
      vertex 32.25 17.25 2
      vertex 32.25 17.25 4.75
    endloop
  endfacet
  facet normal -0.980785 -0.19509 -0
    outer loop
      vertex 32.2119 17.4413 4.75
      vertex 32.2119 17.4413 2
      vertex 32.25 17.25 4.75
    endloop
  endfacet
  facet normal 0.83147 -0.55557 0
    outer loop
      vertex 31.2881 17.4413 4.75
      vertex 31.3964 17.6036 2
      vertex 31.3964 17.6036 4.75
    endloop
  endfacet
  facet normal 0.83147 -0.55557 0
    outer loop
      vertex 31.2881 17.4413 4.75
      vertex 31.2881 17.4413 2
      vertex 31.3964 17.6036 2
    endloop
  endfacet
  facet normal 0.55557 -0.83147 0
    outer loop
      vertex 31.3964 17.6036 4.75
      vertex 31.5587 17.7119 2
      vertex 31.5587 17.7119 4.75
    endloop
  endfacet
  facet normal 0.55557 -0.83147 0
    outer loop
      vertex 31.3964 17.6036 4.75
      vertex 31.3964 17.6036 2
      vertex 31.5587 17.7119 2
    endloop
  endfacet
  facet normal -1 0 -0
    outer loop
      vertex 0 58 14
      vertex 0 58 0
      vertex 0 30 4.75
    endloop
  endfacet
  facet normal -1 0 0
    outer loop
      vertex 0 0 14
      vertex 0 20 4.75
      vertex 0 0 0
    endloop
  endfacet
  facet normal -1 -0 -0
    outer loop
      vertex 0 20 14
      vertex 0 20 4.75
      vertex 0 0 14
    endloop
  endfacet
  facet normal -1 0 -0
    outer loop
      vertex 0 30 4.75
      vertex 0 58 0
      vertex 0 0 0
    endloop
  endfacet
  facet normal -1 -0 0
    outer loop
      vertex 0 30 4.75
      vertex 0 0 0
      vertex 0 20 4.75
    endloop
  endfacet
  facet normal -1 0 0
    outer loop
      vertex 0 30 14
      vertex 0 58 14
      vertex 0 30 4.75
    endloop
  endfacet
  facet normal 0 -1 0
    outer loop
      vertex 38 0 0
      vertex 38 0 14
      vertex 29.5 0 4.75
    endloop
  endfacet
  facet normal -0 -1 0
    outer loop
      vertex 38 0 14
      vertex 29.5 0 14
      vertex 29.5 0 4.75
    endloop
  endfacet
  facet normal 0 -1 0
    outer loop
      vertex 38 0 0
      vertex 8.5 0 4.75
      vertex 0 0 0
    endloop
  endfacet
  facet normal -0 -1 -0
    outer loop
      vertex 29.5 0 4.75
      vertex 8.5 0 4.75
      vertex 38 0 0
    endloop
  endfacet
  facet normal -0 -1 0
    outer loop
      vertex 8.5 0 4.75
      vertex 0 0 14
      vertex 0 0 0
    endloop
  endfacet
  facet normal -0 -1 -0
    outer loop
      vertex 8.5 0 14
      vertex 0 0 14
      vertex 8.5 0 4.75
    endloop
  endfacet
  facet normal 0 0 -1
    outer loop
      vertex 0 58 0
      vertex 38 0 0
      vertex 0 0 0
    endloop
  endfacet
  facet normal 0 0 -1
    outer loop
      vertex 0 58 0
      vertex 38 58 0
      vertex 38 0 0
    endloop
  endfacet
  facet normal 0 1 0
    outer loop
      vertex 29.5 58 4.75
      vertex 0 58 0
      vertex 8.5 58 4.75
    endloop
  endfacet
  facet normal 0 1 0
    outer loop
      vertex 0 58 14
      vertex 8.5 58 4.75
      vertex 0 58 0
    endloop
  endfacet
  facet normal 0 1 0
    outer loop
      vertex 8.5 58 14
      vertex 8.5 58 4.75
      vertex 0 58 14
    endloop
  endfacet
  facet normal 0 1 0
    outer loop
      vertex 29.5 58 4.75
      vertex 38 58 0
      vertex 0 58 0
    endloop
  endfacet
  facet normal 0 1 0
    outer loop
      vertex 38 58 14
      vertex 38 58 0
      vertex 29.5 58 4.75
    endloop
  endfacet
  facet normal -0 1 0
    outer loop
      vertex 29.5 58 14
      vertex 38 58 14
      vertex 29.5 58 4.75
    endloop
  endfacet
  facet normal 0 0 1
    outer loop
      vertex 2 20 14
      vertex 0 20 14
      vertex 2 2 14
    endloop
  endfacet
  facet normal 0 0 1
    outer loop
      vertex 8.5 0 14
      vertex 2 2 14
      vertex 0 0 14
    endloop
  endfacet
  facet normal 0 0 1
    outer loop
      vertex 8.5 2 14
      vertex 2 2 14
      vertex 8.5 0 14
    endloop
  endfacet
  facet normal 0 0 1
    outer loop
      vertex 2 2 14
      vertex 0 20 14
      vertex 0 0 14
    endloop
  endfacet
  facet normal 0 0 1
    outer loop
      vertex 36 2 14
      vertex 29.5 2 14
      vertex 29.5 0 14
    endloop
  endfacet
  facet normal 0 0 1
    outer loop
      vertex 38 20 14
      vertex 36 20 14
      vertex 36 2 14
    endloop
  endfacet
  facet normal 0 0 1
    outer loop
      vertex 38 20 14
      vertex 36 2 14
      vertex 38 0 14
    endloop
  endfacet
  facet normal 0 0 1
    outer loop
      vertex 38 0 14
      vertex 36 2 14
      vertex 29.5 0 14
    endloop
  endfacet
  facet normal 0 0 1
    outer loop
      vertex 36 56 14
      vertex 29.5 58 14
      vertex 29.5 56 14
    endloop
  endfacet
  facet normal 0 0 1
    outer loop
      vertex 36 56 14
      vertex 36 30 14
      vertex 38 30 14
    endloop
  endfacet
  facet normal -0 0 1
    outer loop
      vertex 36 56 14
      vertex 38 30 14
      vertex 38 58 14
    endloop
  endfacet
  facet normal 0 -0 1
    outer loop
      vertex 36 56 14
      vertex 38 58 14
      vertex 29.5 58 14
    endloop
  endfacet
  facet normal 0 0 1
    outer loop
      vertex 2 56 14
      vertex 0 58 14
      vertex 0 30 14
    endloop
  endfacet
  facet normal 0 -0 1
    outer loop
      vertex 2 30 14
      vertex 2 56 14
      vertex 0 30 14
    endloop
  endfacet
  facet normal 0 0 1
    outer loop
      vertex 8.5 58 14
      vertex 0 58 14
      vertex 2 56 14
    endloop
  endfacet
  facet normal 0 -0 1
    outer loop
      vertex 8.5 56 14
      vertex 8.5 58 14
      vertex 2 56 14
    endloop
  endfacet
  facet normal 1 0 -0
    outer loop
      vertex 38 58 0
      vertex 38 58 14
      vertex 38 30 4.75
    endloop
  endfacet
  facet normal 1 0 0
    outer loop
      vertex 38 58 14
      vertex 38 30 14
      vertex 38 30 4.75
    endloop
  endfacet
  facet normal 1 0 0
    outer loop
      vertex 38 58 0
      vertex 38 30 4.75
      vertex 38 0 0
    endloop
  endfacet
  facet normal 1 0 0
    outer loop
      vertex 38 30 4.75
      vertex 38 20 4.75
      vertex 38 0 0
    endloop
  endfacet
  facet normal 1 0 0
    outer loop
      vertex 38 20 4.75
      vertex 38 0 14
      vertex 38 0 0
    endloop
  endfacet
  facet normal 1 0 0
    outer loop
      vertex 38 20 14
      vertex 38 0 14
      vertex 38 20 4.75
    endloop
  endfacet
  facet normal 1 -0 0
    outer loop
      vertex 2 30 4.75
      vertex 2 56 2
      vertex 2 56 14
    endloop
  endfacet
  facet normal 1 -0 0
    outer loop
      vertex 2 30 14
      vertex 2 30 4.75
      vertex 2 56 14
    endloop
  endfacet
  facet normal 1 0 0
    outer loop
      vertex 2 2 2
      vertex 2 56 2
      vertex 2 30 4.75
    endloop
  endfacet
  facet normal 1 0 0
    outer loop
      vertex 2 20 14
      vertex 2 2 14
      vertex 2 20 4.75
    endloop
  endfacet
  facet normal 1 0 0
    outer loop
      vertex 2 2 14
      vertex 2 2 2
      vertex 2 20 4.75
    endloop
  endfacet
  facet normal 1 0 0
    outer loop
      vertex 2 2 2
      vertex 2 30 4.75
      vertex 2 20 4.75
    endloop
  endfacet
  facet normal 0 1 -0
    outer loop
      vertex 8.5 2 4.75
      vertex 2 2 14
      vertex 8.5 2 14
    endloop
  endfacet
  facet normal 0 1 0
    outer loop
      vertex 29.5 2 4.75
      vertex 36 2 2
      vertex 2 2 2
    endloop
  endfacet
  facet normal 0 1 0
    outer loop
      vertex 29.5 2 4.75
      vertex 29.5 2 14
      vertex 36 2 14
    endloop
  endfacet
  facet normal -0 1 0
    outer loop
      vertex 29.5 2 4.75
      vertex 36 2 14
      vertex 36 2 2
    endloop
  endfacet
  facet normal 0 1 0
    outer loop
      vertex 29.5 2 4.75
      vertex 2 2 2
      vertex 8.5 2 4.75
    endloop
  endfacet
  facet normal 0 1 0
    outer loop
      vertex 8.5 2 4.75
      vertex 2 2 2
      vertex 2 2 14
    endloop
  endfacet
  facet normal 0 -1 0
    outer loop
      vertex 29.5 56 4.75
      vertex 36 56 2
      vertex 36 56 14
    endloop
  endfacet
  facet normal 0 -1 0
    outer loop
      vertex 29.5 56 14
      vertex 29.5 56 4.75
      vertex 36 56 14
    endloop
  endfacet
  facet normal 0 -1 0
    outer loop
      vertex 8.5 56 4.75
      vertex 36 56 2
      vertex 29.5 56 4.75
    endloop
  endfacet
  facet normal -0 -1 -0
    outer loop
      vertex 8.5 56 14
      vertex 2 56 14
      vertex 8.5 56 4.75
    endloop
  endfacet
  facet normal 0 -1 0
    outer loop
      vertex 2 56 14
      vertex 2 56 2
      vertex 8.5 56 4.75
    endloop
  endfacet
  facet normal 0 -1 0
    outer loop
      vertex 2 56 2
      vertex 36 56 2
      vertex 8.5 56 4.75
    endloop
  endfacet
  facet normal -1 0 0
    outer loop
      vertex 36 20 4.75
      vertex 36 2 14
      vertex 36 20 14
    endloop
  endfacet
  facet normal -1 0 -0
    outer loop
      vertex 36 30 4.75
      vertex 36 56 2
      vertex 36 2 2
    endloop
  endfacet
  facet normal -1 0 0
    outer loop
      vertex 36 30 4.75
      vertex 36 30 14
      vertex 36 56 14
    endloop
  endfacet
  facet normal -1 0 0
    outer loop
      vertex 36 30 4.75
      vertex 36 56 14
      vertex 36 56 2
    endloop
  endfacet
  facet normal -1 -0 0
    outer loop
      vertex 36 30 4.75
      vertex 36 2 2
      vertex 36 20 4.75
    endloop
  endfacet
  facet normal -1 -0 0
    outer loop
      vertex 36 20 4.75
      vertex 36 2 2
      vertex 36 2 14
    endloop
  endfacet
  facet normal 1 -0 0
    outer loop
      vertex 8.5 0 14
      vertex 8.5 2 4.75
      vertex 8.5 2 14
    endloop
  endfacet
  facet normal 1 0 0
    outer loop
      vertex 8.5 0 14
      vertex 8.5 0 4.75
      vertex 8.5 2 4.75
    endloop
  endfacet
  facet normal -0 0 1
    outer loop
      vertex 8.5 2 4.75
      vertex 29.5 0 4.75
      vertex 29.5 2 4.75
    endloop
  endfacet
  facet normal 0 0 1
    outer loop
      vertex 8.5 2 4.75
      vertex 8.5 0 4.75
      vertex 29.5 0 4.75
    endloop
  endfacet
  facet normal -1 0 0
    outer loop
      vertex 29.5 2 4.75
      vertex 29.5 0 14
      vertex 29.5 2 14
    endloop
  endfacet
  facet normal -1 0 0
    outer loop
      vertex 29.5 2 4.75
      vertex 29.5 0 4.75
      vertex 29.5 0 14
    endloop
  endfacet
  facet normal 1 -0 0
    outer loop
      vertex 8.5 56 14
      vertex 8.5 58 4.75
      vertex 8.5 58 14
    endloop
  endfacet
  facet normal 1 0 0
    outer loop
      vertex 8.5 56 14
      vertex 8.5 56 4.75
      vertex 8.5 58 4.75
    endloop
  endfacet
  facet normal -0 0 1
    outer loop
      vertex 8.5 58 4.75
      vertex 29.5 56 4.75
      vertex 29.5 58 4.75
    endloop
  endfacet
  facet normal 0 0 1
    outer loop
      vertex 8.5 58 4.75
      vertex 8.5 56 4.75
      vertex 29.5 56 4.75
    endloop
  endfacet
  facet normal -1 0 0
    outer loop
      vertex 29.5 58 4.75
      vertex 29.5 56 14
      vertex 29.5 58 14
    endloop
  endfacet
  facet normal -1 0 0
    outer loop
      vertex 29.5 58 4.75
      vertex 29.5 56 4.75
      vertex 29.5 56 14
    endloop
  endfacet
  facet normal 0 1 -0
    outer loop
      vertex 2 20 4.75
      vertex 0 20 14
      vertex 2 20 14
    endloop
  endfacet
  facet normal 0 1 0
    outer loop
      vertex 2 20 4.75
      vertex 0 20 4.75
      vertex 0 20 14
    endloop
  endfacet
  facet normal 0 1 -0
    outer loop
      vertex 38 20 4.75
      vertex 36 20 14
      vertex 38 20 14
    endloop
  endfacet
  facet normal 0 1 0
    outer loop
      vertex 38 20 4.75
      vertex 36 20 4.75
      vertex 36 20 14
    endloop
  endfacet
  facet normal -0 0 1
    outer loop
      vertex 0 30 4.75
      vertex 2 20 4.75
      vertex 2 30 4.75
    endloop
  endfacet
  facet normal 0 0 1
    outer loop
      vertex 0 30 4.75
      vertex 0 20 4.75
      vertex 2 20 4.75
    endloop
  endfacet
  facet normal -0 0 1
    outer loop
      vertex 36 30 4.75
      vertex 38 20 4.75
      vertex 38 30 4.75
    endloop
  endfacet
  facet normal 0 0 1
    outer loop
      vertex 36 30 4.75
      vertex 36 20 4.75
      vertex 38 20 4.75
    endloop
  endfacet
  facet normal 0 -1 0
    outer loop
      vertex 0 30 14
      vertex 2 30 4.75
      vertex 2 30 14
    endloop
  endfacet
  facet normal 0 -1 0
    outer loop
      vertex 0 30 14
      vertex 0 30 4.75
      vertex 2 30 4.75
    endloop
  endfacet
  facet normal 0 -1 0
    outer loop
      vertex 36 30 14
      vertex 38 30 4.75
      vertex 38 30 14
    endloop
  endfacet
  facet normal 0 -1 0
    outer loop
      vertex 36 30 14
      vertex 36 30 4.75
      vertex 38 30 4.75
    endloop
  endfacet
endsolid OpenSCAD_Model
