solid OpenSCAD_Model
  facet normal -1 0 -0
    outer loop
      vertex 0 20 1
      vertex 0 20.75 0
      vertex 0 8.75 0
    endloop
  endfacet
  facet normal -1 0 0
    outer loop
      vertex 0 8.75 1
      vertex 0 20 1
      vertex 0 8.75 0
    endloop
  endfacet
  facet normal -1 -0 0
    outer loop
      vertex 0 30 1
      vertex 0 23.75 0
      vertex 0 23.75 1
    endloop
  endfacet
  facet normal -1 0 -0
    outer loop
      vertex 0 30 1
      vertex 0 35.75 0
      vertex 0 23.75 0
    endloop
  endfacet
  facet normal -1 -0 -0
    outer loop
      vertex 0 35.75 1
      vertex 0 35.75 0
      vertex 0 30 1
    endloop
  endfacet
  facet normal -1 0 0
    outer loop
      vertex 0 30 1
      vertex 0 23.75 1
      vertex 0 30 3.75
    endloop
  endfacet
  facet normal -1 -0 0
    outer loop
      vertex 0 30 3.75
      vertex 0 23.75 1
      vertex 0 20 3.75
    endloop
  endfacet
  facet normal -1 0 0
    outer loop
      vertex 0 20.75 1
      vertex 0 20 1
      vertex 0 20 3.75
    endloop
  endfacet
  facet normal -1 0 0
    outer loop
      vertex 0 23.75 1
      vertex 0 20.75 1
      vertex 0 20 3.75
    endloop
  endfacet
  facet normal -1 -0 -0
    outer loop
      vertex 0 20.75 1
      vertex 0 20.75 0
      vertex 0 20 1
    endloop
  endfacet
  facet normal -1 0 0
    outer loop
      vertex 0 0 1
      vertex 0 5.75 0
      vertex 0 0 0
    endloop
  endfacet
  facet normal -1 0 0
    outer loop
      vertex 0 0 1
      vertex 0 5.75 1
      vertex 0 5.75 0
    endloop
  endfacet
  facet normal -1 0 0
    outer loop
      vertex 0 53.75 1
      vertex 0 58 0
      vertex 0 53.75 0
    endloop
  endfacet
  facet normal -1 0 0
    outer loop
      vertex 0 53.75 1
      vertex 0 58 1
      vertex 0 58 0
    endloop
  endfacet
  facet normal -1 0 0
    outer loop
      vertex 0 38.75 1
      vertex 0 50.75 0
      vertex 0 38.75 0
    endloop
  endfacet
  facet normal -1 0 0
    outer loop
      vertex 0 38.75 1
      vertex 0 50.75 1
      vertex 0 50.75 0
    endloop
  endfacet
  facet normal 0 -1 0
    outer loop
      vertex 38 0 0
      vertex 38 0 1
      vertex 29.3 0 1
    endloop
  endfacet
  facet normal 0 -1 0
    outer loop
      vertex 38 0 0
      vertex 8.7 0 1
      vertex 0 0 0
    endloop
  endfacet
  facet normal 0 -1 0
    outer loop
      vertex 0 0 1
      vertex 0 0 0
      vertex 8.7 0 1
    endloop
  endfacet
  facet normal -0 -1 -0
    outer loop
      vertex 29.3 0 3.75
      vertex 8.7 0 3.75
      vertex 29.3 0 1
    endloop
  endfacet
  facet normal 0 -1 0
    outer loop
      vertex 8.7 0 3.75
      vertex 8.7 0 1
      vertex 29.3 0 1
    endloop
  endfacet
  facet normal 0 -1 0
    outer loop
      vertex 8.7 0 1
      vertex 38 0 0
      vertex 29.3 0 1
    endloop
  endfacet
  facet normal 0 0 -1
    outer loop
      vertex 0 5.75 0
      vertex 38 0 0
      vertex 0 0 0
    endloop
  endfacet
  facet normal 0 0 -1
    outer loop
      vertex 0 5.75 0
      vertex 38 5.75 0
      vertex 38 0 0
    endloop
  endfacet
  facet normal 0 0 -1
    outer loop
      vertex 0 58 0
      vertex 38 53.75 0
      vertex 0 53.75 0
    endloop
  endfacet
  facet normal 0 0 -1
    outer loop
      vertex 0 58 0
      vertex 38 58 0
      vertex 38 53.75 0
    endloop
  endfacet
  facet normal 0 0 -1
    outer loop
      vertex 0 20.75 0
      vertex 38 8.75 0
      vertex 0 8.75 0
    endloop
  endfacet
  facet normal 0 0 -1
    outer loop
      vertex 0 20.75 0
      vertex 38 20.75 0
      vertex 38 8.75 0
    endloop
  endfacet
  facet normal 0 0 -1
    outer loop
      vertex 0 35.75 0
      vertex 38 23.75 0
      vertex 0 23.75 0
    endloop
  endfacet
  facet normal 0 0 -1
    outer loop
      vertex 0 35.75 0
      vertex 38 35.75 0
      vertex 38 23.75 0
    endloop
  endfacet
  facet normal 0 0 -1
    outer loop
      vertex 0 50.75 0
      vertex 38 38.75 0
      vertex 0 38.75 0
    endloop
  endfacet
  facet normal 0 0 -1
    outer loop
      vertex 0 50.75 0
      vertex 38 50.75 0
      vertex 38 38.75 0
    endloop
  endfacet
  facet normal 0 1 0
    outer loop
      vertex 29.3 58 1
      vertex 38 58 0
      vertex 0 58 0
    endloop
  endfacet
  facet normal -0 1 0
    outer loop
      vertex 0 58 1
      vertex 8.7 58 1
      vertex 0 58 0
    endloop
  endfacet
  facet normal 0 1 0
    outer loop
      vertex 38 58 1
      vertex 38 58 0
      vertex 29.3 58 1
    endloop
  endfacet
  facet normal 0 1 0
    outer loop
      vertex 8.7 58 3.75
      vertex 29.3 58 1
      vertex 8.7 58 1
    endloop
  endfacet
  facet normal 0 1 0
    outer loop
      vertex 29.3 58 3.75
      vertex 29.3 58 1
      vertex 8.7 58 3.75
    endloop
  endfacet
  facet normal 0 1 0
    outer loop
      vertex 29.3 58 1
      vertex 0 58 0
      vertex 8.7 58 1
    endloop
  endfacet
  facet normal 0 0 1
    outer loop
      vertex 36 20.75 1
      vertex 35.8 20.75 1
      vertex 36 20 1
    endloop
  endfacet
  facet normal 0 0 1
    outer loop
      vertex 38 8.75 1
      vertex 36 20 1
      vertex 35.8 8.75 1
    endloop
  endfacet
  facet normal 0 0 1
    outer loop
      vertex 38 20 1
      vertex 36 20 1
      vertex 38 8.75 1
    endloop
  endfacet
  facet normal 0 0 1
    outer loop
      vertex 36 20 1
      vertex 35.8 20.75 1
      vertex 35.8 8.75 1
    endloop
  endfacet
  facet normal 0 0 1
    outer loop
      vertex 36 30 1
      vertex 35.8 35.75 1
      vertex 35.8 23.75 1
    endloop
  endfacet
  facet normal 0 -0 1
    outer loop
      vertex 36 23.75 1
      vertex 36 30 1
      vertex 35.8 23.75 1
    endloop
  endfacet
  facet normal 0 0 1
    outer loop
      vertex 38 35.75 1
      vertex 35.8 35.75 1
      vertex 36 30 1
    endloop
  endfacet
  facet normal 0 -0 1
    outer loop
      vertex 38 30 1
      vertex 38 35.75 1
      vertex 36 30 1
    endloop
  endfacet
  facet normal 0 0 1
    outer loop
      vertex 2 20 1
      vertex 0 20 1
      vertex 0 8.75 1
    endloop
  endfacet
  facet normal 0 -0 1
    outer loop
      vertex 2.2 8.75 1
      vertex 2.2 20.75 1
      vertex 2 20 1
    endloop
  endfacet
  facet normal 0 0 1
    outer loop
      vertex 2.2 20.75 1
      vertex 2 20.75 1
      vertex 2 20 1
    endloop
  endfacet
  facet normal 0 0 1
    outer loop
      vertex 2.2 8.75 1
      vertex 2 20 1
      vertex 0 8.75 1
    endloop
  endfacet
  facet normal 0 0 1
    outer loop
      vertex 2 30 1
      vertex 0 35.75 1
      vertex 0 30 1
    endloop
  endfacet
  facet normal 0 0 1
    outer loop
      vertex 2 30 1
      vertex 2 23.75 1
      vertex 2.2 23.75 1
    endloop
  endfacet
  facet normal -0 0 1
    outer loop
      vertex 2 30 1
      vertex 2.2 23.75 1
      vertex 2.2 35.75 1
    endloop
  endfacet
  facet normal 0 -0 1
    outer loop
      vertex 2 30 1
      vertex 2.2 35.75 1
      vertex 0 35.75 1
    endloop
  endfacet
  facet normal 0 0 1
    outer loop
      vertex 2.2 56 1
      vertex 0 58 1
      vertex 0 53.75 1
    endloop
  endfacet
  facet normal 0 -0 1
    outer loop
      vertex 2.2 53.75 1
      vertex 2.2 56 1
      vertex 0 53.75 1
    endloop
  endfacet
  facet normal 0 0 1
    outer loop
      vertex 8.7 58 1
      vertex 0 58 1
      vertex 2.2 56 1
    endloop
  endfacet
  facet normal 0 -0 1
    outer loop
      vertex 8.7 56 1
      vertex 8.7 58 1
      vertex 2.2 56 1
    endloop
  endfacet
  facet normal 0 0 1
    outer loop
      vertex 35.8 56 1
      vertex 29.3 58 1
      vertex 29.3 56 1
    endloop
  endfacet
  facet normal 0 0 1
    outer loop
      vertex 35.8 56 1
      vertex 35.8 53.75 1
      vertex 38 53.75 1
    endloop
  endfacet
  facet normal -0 0 1
    outer loop
      vertex 35.8 56 1
      vertex 38 53.75 1
      vertex 38 58 1
    endloop
  endfacet
  facet normal 0 -0 1
    outer loop
      vertex 35.8 56 1
      vertex 38 58 1
      vertex 29.3 58 1
    endloop
  endfacet
  facet normal 0 0 1
    outer loop
      vertex 2.2 5.75 1
      vertex 0 5.75 1
      vertex 2.2 2.2 1
    endloop
  endfacet
  facet normal 0 0 1
    outer loop
      vertex 8.7 0 1
      vertex 2.2 2.2 1
      vertex 0 0 1
    endloop
  endfacet
  facet normal 0 0 1
    outer loop
      vertex 29.3 0 1
      vertex 35.8 2.2 1
      vertex 29.3 2 1
    endloop
  endfacet
  facet normal 0 0 1
    outer loop
      vertex 38 5.75 1
      vertex 35.8 5.75 1
      vertex 35.8 2.2 1
    endloop
  endfacet
  facet normal 0 0 1
    outer loop
      vertex 38 5.75 1
      vertex 35.8 2.2 1
      vertex 38 0 1
    endloop
  endfacet
  facet normal 0 0 1
    outer loop
      vertex 38 0 1
      vertex 35.8 2.2 1
      vertex 29.3 0 1
    endloop
  endfacet
  facet normal 0 0 1
    outer loop
      vertex 8.7 2 1
      vertex 2.2 2.2 1
      vertex 8.7 0 1
    endloop
  endfacet
  facet normal 0 0 1
    outer loop
      vertex 2.2 2.2 1
      vertex 0 5.75 1
      vertex 0 0 1
    endloop
  endfacet
  facet normal 0 -0 1
    outer loop
      vertex 8.7 2 1
      vertex 29.3 2 1
      vertex 2.2 2.2 1
    endloop
  endfacet
  facet normal 0 -0 1
    outer loop
      vertex 29.3 2 1
      vertex 35.8 2.2 1
      vertex 2.2 2.2 1
    endloop
  endfacet
  facet normal 0 0 -1
    outer loop
      vertex 2 20.75 1
      vertex 0 23.75 1
      vertex 2 23.75 1
    endloop
  endfacet
  facet normal 0 0 -1
    outer loop
      vertex 2 20.75 1
      vertex 0 20.75 1
      vertex 0 23.75 1
    endloop
  endfacet
  facet normal 0 0 -1
    outer loop
      vertex 38 20.75 1
      vertex 36 23.75 1
      vertex 38 23.75 1
    endloop
  endfacet
  facet normal 0 0 -1
    outer loop
      vertex 38 20.75 1
      vertex 36 20.75 1
      vertex 36 23.75 1
    endloop
  endfacet
  facet normal 0 0 1
    outer loop
      vertex 2.2 38.75 1
      vertex 0 50.75 1
      vertex 0 38.75 1
    endloop
  endfacet
  facet normal 0 -0 1
    outer loop
      vertex 2.2 38.75 1
      vertex 2.2 50.75 1
      vertex 0 50.75 1
    endloop
  endfacet
  facet normal 0 0 1
    outer loop
      vertex 38 38.75 1
      vertex 35.8 50.75 1
      vertex 35.8 38.75 1
    endloop
  endfacet
  facet normal 0 -0 1
    outer loop
      vertex 38 38.75 1
      vertex 38 50.75 1
      vertex 35.8 50.75 1
    endloop
  endfacet
  facet normal 0 0 -1
    outer loop
      vertex 35.8 5.75 1
      vertex 2.2 8.75 1
      vertex 35.8 8.75 1
    endloop
  endfacet
  facet normal 0 0 -1
    outer loop
      vertex 35.8 5.75 1
      vertex 2.2 5.75 1
      vertex 2.2 8.75 1
    endloop
  endfacet
  facet normal 0 0 -1
    outer loop
      vertex 35.8 20.75 1
      vertex 2.2 23.75 1
      vertex 35.8 23.75 1
    endloop
  endfacet
  facet normal 0 0 -1
    outer loop
      vertex 35.8 20.75 1
      vertex 2.2 20.75 1
      vertex 2.2 23.75 1
    endloop
  endfacet
  facet normal 0 0 -1
    outer loop
      vertex 35.8 35.75 1
      vertex 2.2 38.75 1
      vertex 35.8 38.75 1
    endloop
  endfacet
  facet normal 0 0 -1
    outer loop
      vertex 35.8 35.75 1
      vertex 2.2 35.75 1
      vertex 2.2 38.75 1
    endloop
  endfacet
  facet normal 0 0 -1
    outer loop
      vertex 35.8 50.75 1
      vertex 2.2 53.75 1
      vertex 35.8 53.75 1
    endloop
  endfacet
  facet normal 0 0 -1
    outer loop
      vertex 35.8 50.75 1
      vertex 2.2 50.75 1
      vertex 2.2 53.75 1
    endloop
  endfacet
  facet normal 1 0 0
    outer loop
      vertex 38 20 1
      vertex 38 8.75 1
      vertex 38 8.75 0
    endloop
  endfacet
  facet normal 1 0 0
    outer loop
      vertex 38 20.75 0
      vertex 38 20 1
      vertex 38 8.75 0
    endloop
  endfacet
  facet normal 1 0 0
    outer loop
      vertex 38 23.75 0
      vertex 38 30 1
      vertex 38 23.75 1
    endloop
  endfacet
  facet normal 1 0 -0
    outer loop
      vertex 38 35.75 0
      vertex 38 35.75 1
      vertex 38 30 1
    endloop
  endfacet
  facet normal 1 0 0
    outer loop
      vertex 38 35.75 0
      vertex 38 30 1
      vertex 38 23.75 0
    endloop
  endfacet
  facet normal 1 0 0
    outer loop
      vertex 38 20 3.75
      vertex 38 20.75 1
      vertex 38 23.75 1
    endloop
  endfacet
  facet normal 1 0 0
    outer loop
      vertex 38 30 3.75
      vertex 38 23.75 1
      vertex 38 30 1
    endloop
  endfacet
  facet normal 1 0 0
    outer loop
      vertex 38 30 3.75
      vertex 38 20 3.75
      vertex 38 23.75 1
    endloop
  endfacet
  facet normal 1 0 0
    outer loop
      vertex 38 20 3.75
      vertex 38 20 1
      vertex 38 20.75 1
    endloop
  endfacet
  facet normal 1 -0 0
    outer loop
      vertex 38 20 1
      vertex 38 20.75 0
      vertex 38 20.75 1
    endloop
  endfacet
  facet normal 1 0 0
    outer loop
      vertex 38 5.75 0
      vertex 38 0 1
      vertex 38 0 0
    endloop
  endfacet
  facet normal 1 0 -0
    outer loop
      vertex 38 5.75 0
      vertex 38 5.75 1
      vertex 38 0 1
    endloop
  endfacet
  facet normal 1 0 0
    outer loop
      vertex 38 58 0
      vertex 38 53.75 1
      vertex 38 53.75 0
    endloop
  endfacet
  facet normal 1 0 -0
    outer loop
      vertex 38 58 0
      vertex 38 58 1
      vertex 38 53.75 1
    endloop
  endfacet
  facet normal 1 0 0
    outer loop
      vertex 38 50.75 0
      vertex 38 38.75 1
      vertex 38 38.75 0
    endloop
  endfacet
  facet normal 1 0 -0
    outer loop
      vertex 38 50.75 0
      vertex 38 50.75 1
      vertex 38 38.75 1
    endloop
  endfacet
  facet normal 0 1 0
    outer loop
      vertex 38 5.75 0
      vertex 2.2 5.75 1
      vertex 35.8 5.75 1
    endloop
  endfacet
  facet normal 0 1 0
    outer loop
      vertex 0 5.75 0
      vertex 0 5.75 1
      vertex 2.2 5.75 1
    endloop
  endfacet
  facet normal 0 1 -0
    outer loop
      vertex 38 5.75 0
      vertex 35.8 5.75 1
      vertex 38 5.75 1
    endloop
  endfacet
  facet normal 0 1 0
    outer loop
      vertex 38 5.75 0
      vertex 0 5.75 0
      vertex 2.2 5.75 1
    endloop
  endfacet
  facet normal 0 -1 0
    outer loop
      vertex 35.8 8.75 1
      vertex 38 8.75 0
      vertex 38 8.75 1
    endloop
  endfacet
  facet normal -0 -1 -0
    outer loop
      vertex 35.8 8.75 1
      vertex 2.2 8.75 1
      vertex 38 8.75 0
    endloop
  endfacet
  facet normal 0 -1 -0
    outer loop
      vertex 2.2 8.75 1
      vertex 0 8.75 0
      vertex 38 8.75 0
    endloop
  endfacet
  facet normal 0 -1 0
    outer loop
      vertex 0 8.75 1
      vertex 0 8.75 0
      vertex 2.2 8.75 1
    endloop
  endfacet
  facet normal 0 1 0
    outer loop
      vertex 0 20.75 0
      vertex 2 20.75 1
      vertex 2.2 20.75 1
    endloop
  endfacet
  facet normal 0 1 0
    outer loop
      vertex 0 20.75 0
      vertex 0 20.75 1
      vertex 2 20.75 1
    endloop
  endfacet
  facet normal 0 1 0
    outer loop
      vertex 38 20.75 0
      vertex 2.2 20.75 1
      vertex 35.8 20.75 1
    endloop
  endfacet
  facet normal 0 1 0
    outer loop
      vertex 38 20.75 0
      vertex 35.8 20.75 1
      vertex 36 20.75 1
    endloop
  endfacet
  facet normal 0 1 -0
    outer loop
      vertex 38 20.75 0
      vertex 36 20.75 1
      vertex 38 20.75 1
    endloop
  endfacet
  facet normal 0 1 0
    outer loop
      vertex 38 20.75 0
      vertex 0 20.75 0
      vertex 2.2 20.75 1
    endloop
  endfacet
  facet normal 0 -1 0
    outer loop
      vertex 36 23.75 1
      vertex 38 23.75 0
      vertex 38 23.75 1
    endloop
  endfacet
  facet normal -0 -1 -0
    outer loop
      vertex 36 23.75 1
      vertex 35.8 23.75 1
      vertex 38 23.75 0
    endloop
  endfacet
  facet normal -0 -1 -0
    outer loop
      vertex 35.8 23.75 1
      vertex 2.2 23.75 1
      vertex 38 23.75 0
    endloop
  endfacet
  facet normal 0 -1 -0
    outer loop
      vertex 2.2 23.75 1
      vertex 0 23.75 0
      vertex 38 23.75 0
    endloop
  endfacet
  facet normal 0 -1 -0
    outer loop
      vertex 2 23.75 1
      vertex 0 23.75 0
      vertex 2.2 23.75 1
    endloop
  endfacet
  facet normal 0 -1 0
    outer loop
      vertex 0 23.75 1
      vertex 0 23.75 0
      vertex 2 23.75 1
    endloop
  endfacet
  facet normal 0 1 0
    outer loop
      vertex 38 35.75 0
      vertex 2.2 35.75 1
      vertex 35.8 35.75 1
    endloop
  endfacet
  facet normal 0 1 0
    outer loop
      vertex 0 35.75 0
      vertex 0 35.75 1
      vertex 2.2 35.75 1
    endloop
  endfacet
  facet normal 0 1 -0
    outer loop
      vertex 38 35.75 0
      vertex 35.8 35.75 1
      vertex 38 35.75 1
    endloop
  endfacet
  facet normal 0 1 0
    outer loop
      vertex 38 35.75 0
      vertex 0 35.75 0
      vertex 2.2 35.75 1
    endloop
  endfacet
  facet normal 0 -1 0
    outer loop
      vertex 35.8 38.75 1
      vertex 38 38.75 0
      vertex 38 38.75 1
    endloop
  endfacet
  facet normal -0 -1 -0
    outer loop
      vertex 35.8 38.75 1
      vertex 2.2 38.75 1
      vertex 38 38.75 0
    endloop
  endfacet
  facet normal 0 -1 -0
    outer loop
      vertex 2.2 38.75 1
      vertex 0 38.75 0
      vertex 38 38.75 0
    endloop
  endfacet
  facet normal 0 -1 0
    outer loop
      vertex 0 38.75 1
      vertex 0 38.75 0
      vertex 2.2 38.75 1
    endloop
  endfacet
  facet normal 0 1 0
    outer loop
      vertex 38 50.75 0
      vertex 2.2 50.75 1
      vertex 35.8 50.75 1
    endloop
  endfacet
  facet normal 0 1 0
    outer loop
      vertex 0 50.75 0
      vertex 0 50.75 1
      vertex 2.2 50.75 1
    endloop
  endfacet
  facet normal 0 1 -0
    outer loop
      vertex 38 50.75 0
      vertex 35.8 50.75 1
      vertex 38 50.75 1
    endloop
  endfacet
  facet normal 0 1 0
    outer loop
      vertex 38 50.75 0
      vertex 0 50.75 0
      vertex 2.2 50.75 1
    endloop
  endfacet
  facet normal 0 -1 0
    outer loop
      vertex 35.8 53.75 1
      vertex 38 53.75 0
      vertex 38 53.75 1
    endloop
  endfacet
  facet normal -0 -1 -0
    outer loop
      vertex 35.8 53.75 1
      vertex 2.2 53.75 1
      vertex 38 53.75 0
    endloop
  endfacet
  facet normal 0 -1 -0
    outer loop
      vertex 2.2 53.75 1
      vertex 0 53.75 0
      vertex 38 53.75 0
    endloop
  endfacet
  facet normal 0 -1 0
    outer loop
      vertex 0 53.75 1
      vertex 0 53.75 0
      vertex 2.2 53.75 1
    endloop
  endfacet
  facet normal -1 0 0
    outer loop
      vertex 2.2 2.2 2
      vertex 2.2 5.75 1
      vertex 2.2 2.2 1
    endloop
  endfacet
  facet normal -1 0 0
    outer loop
      vertex 2.2 56 2
      vertex 2.2 50.75 1
      vertex 2.2 38.75 1
    endloop
  endfacet
  facet normal -1 0 -0
    outer loop
      vertex 2.2 56 2
      vertex 2.2 56 1
      vertex 2.2 53.75 1
    endloop
  endfacet
  facet normal -1 0 0
    outer loop
      vertex 2.2 56 2
      vertex 2.2 53.75 1
      vertex 2.2 50.75 1
    endloop
  endfacet
  facet normal -1 -0 0
    outer loop
      vertex 2.2 56 2
      vertex 2.2 23.75 1
      vertex 2.2 2.2 2
    endloop
  endfacet
  facet normal -1 0 0
    outer loop
      vertex 2.2 56 2
      vertex 2.2 38.75 1
      vertex 2.2 35.75 1
    endloop
  endfacet
  facet normal -1 0 0
    outer loop
      vertex 2.2 56 2
      vertex 2.2 35.75 1
      vertex 2.2 23.75 1
    endloop
  endfacet
  facet normal -1 0 0
    outer loop
      vertex 2.2 2.2 2
      vertex 2.2 23.75 1
      vertex 2.2 20.75 1
    endloop
  endfacet
  facet normal -1 0 0
    outer loop
      vertex 2.2 2.2 2
      vertex 2.2 20.75 1
      vertex 2.2 8.75 1
    endloop
  endfacet
  facet normal -1 0 0
    outer loop
      vertex 2.2 2.2 2
      vertex 2.2 8.75 1
      vertex 2.2 5.75 1
    endloop
  endfacet
  facet normal 0 -1 0
    outer loop
      vertex 35.8 2.2 1
      vertex 2.2 2.2 2
      vertex 2.2 2.2 1
    endloop
  endfacet
  facet normal 0 -1 0
    outer loop
      vertex 35.8 2.2 1
      vertex 35.8 2.2 2
      vertex 2.2 2.2 2
    endloop
  endfacet
  facet normal 0 1 0
    outer loop
      vertex 2.2 56 2
      vertex 8.7 56 1
      vertex 2.2 56 1
    endloop
  endfacet
  facet normal -0 1 0
    outer loop
      vertex 2.2 56 2
      vertex 8.7 56 2
      vertex 8.7 56 1
    endloop
  endfacet
  facet normal 0 -1 0
    outer loop
      vertex 8.7 56 3.75
      vertex 29.3 56 2
      vertex 29.3 56 3.75
    endloop
  endfacet
  facet normal 0 -1 0
    outer loop
      vertex 8.7 56 3.75
      vertex 8.7 56 2
      vertex 29.3 56 2
    endloop
  endfacet
  facet normal 0 1 0
    outer loop
      vertex 29.3 56 2
      vertex 35.8 56 1
      vertex 29.3 56 1
    endloop
  endfacet
  facet normal -0 1 0
    outer loop
      vertex 29.3 56 2
      vertex 35.8 56 2
      vertex 35.8 56 1
    endloop
  endfacet
  facet normal 0 -0 1
    outer loop
      vertex 35.8 2.2 2
      vertex 35.8 56 2
      vertex 29.3 56 2
    endloop
  endfacet
  facet normal 0 0 1
    outer loop
      vertex 35.8 2.2 2
      vertex 29.3 56 2
      vertex 2.2 2.2 2
    endloop
  endfacet
  facet normal 0 0 1
    outer loop
      vertex 29.3 56 2
      vertex 8.7 56 2
      vertex 2.2 2.2 2
    endloop
  endfacet
  facet normal 0 0 1
    outer loop
      vertex 8.7 56 2
      vertex 2.2 56 2
      vertex 2.2 2.2 2
    endloop
  endfacet
  facet normal 1 0 0
    outer loop
      vertex 35.8 5.75 1
      vertex 35.8 2.2 2
      vertex 35.8 2.2 1
    endloop
  endfacet
  facet normal 1 0 -0
    outer loop
      vertex 35.8 5.75 1
      vertex 35.8 8.75 1
      vertex 35.8 2.2 2
    endloop
  endfacet
  facet normal 1 0 -0
    outer loop
      vertex 35.8 8.75 1
      vertex 35.8 20.75 1
      vertex 35.8 2.2 2
    endloop
  endfacet
  facet normal 1 0 -0
    outer loop
      vertex 35.8 20.75 1
      vertex 35.8 23.75 1
      vertex 35.8 2.2 2
    endloop
  endfacet
  facet normal 1 0 -0
    outer loop
      vertex 35.8 23.75 1
      vertex 35.8 56 2
      vertex 35.8 2.2 2
    endloop
  endfacet
  facet normal 1 0 -0
    outer loop
      vertex 35.8 35.75 1
      vertex 35.8 56 2
      vertex 35.8 23.75 1
    endloop
  endfacet
  facet normal 1 0 -0
    outer loop
      vertex 35.8 38.75 1
      vertex 35.8 56 2
      vertex 35.8 35.75 1
    endloop
  endfacet
  facet normal 1 0 -0
    outer loop
      vertex 35.8 50.75 1
      vertex 35.8 56 2
      vertex 35.8 38.75 1
    endloop
  endfacet
  facet normal 1 0 -0
    outer loop
      vertex 35.8 53.75 1
      vertex 35.8 56 2
      vertex 35.8 50.75 1
    endloop
  endfacet
  facet normal 1 0 -0
    outer loop
      vertex 35.8 56 1
      vertex 35.8 56 2
      vertex 35.8 53.75 1
    endloop
  endfacet
  facet normal -1 0 0
    outer loop
      vertex 8.7 0 3.75
      vertex 8.7 2 1
      vertex 8.7 0 1
    endloop
  endfacet
  facet normal -1 0 0
    outer loop
      vertex 8.7 0 3.75
      vertex 8.7 2 3.75
      vertex 8.7 2 1
    endloop
  endfacet
  facet normal 0 1 0
    outer loop
      vertex 8.7 2 3.75
      vertex 29.3 2 1
      vertex 8.7 2 1
    endloop
  endfacet
  facet normal -0 1 0
    outer loop
      vertex 8.7 2 3.75
      vertex 29.3 2 3.75
      vertex 29.3 2 1
    endloop
  endfacet
  facet normal 0 0 1
    outer loop
      vertex 29.3 0 3.75
      vertex 8.7 2 3.75
      vertex 8.7 0 3.75
    endloop
  endfacet
  facet normal 0 -0 1
    outer loop
      vertex 29.3 0 3.75
      vertex 29.3 2 3.75
      vertex 8.7 2 3.75
    endloop
  endfacet
  facet normal 1 0 0
    outer loop
      vertex 29.3 2 1
      vertex 29.3 0 3.75
      vertex 29.3 0 1
    endloop
  endfacet
  facet normal 1 0 -0
    outer loop
      vertex 29.3 2 1
      vertex 29.3 2 3.75
      vertex 29.3 0 3.75
    endloop
  endfacet
  facet normal -1 0 0
    outer loop
      vertex 8.7 56 2
      vertex 8.7 58 1
      vertex 8.7 56 1
    endloop
  endfacet
  facet normal -1 0 0
    outer loop
      vertex 8.7 56 2
      vertex 8.7 58 3.75
      vertex 8.7 58 1
    endloop
  endfacet
  facet normal -1 0 0
    outer loop
      vertex 8.7 56 3.75
      vertex 8.7 58 3.75
      vertex 8.7 56 2
    endloop
  endfacet
  facet normal 0 0 1
    outer loop
      vertex 29.3 56 3.75
      vertex 8.7 58 3.75
      vertex 8.7 56 3.75
    endloop
  endfacet
  facet normal 0 -0 1
    outer loop
      vertex 29.3 56 3.75
      vertex 29.3 58 3.75
      vertex 8.7 58 3.75
    endloop
  endfacet
  facet normal 1 0 0
    outer loop
      vertex 29.3 58 1
      vertex 29.3 56 2
      vertex 29.3 56 1
    endloop
  endfacet
  facet normal 1 0 -0
    outer loop
      vertex 29.3 58 1
      vertex 29.3 58 3.75
      vertex 29.3 56 2
    endloop
  endfacet
  facet normal 1 0 0
    outer loop
      vertex 29.3 58 3.75
      vertex 29.3 56 3.75
      vertex 29.3 56 2
    endloop
  endfacet
  facet normal 0 -1 0
    outer loop
      vertex 2 20 1
      vertex 0 20 3.75
      vertex 0 20 1
    endloop
  endfacet
  facet normal 0 -1 0
    outer loop
      vertex 2 20 1
      vertex 2 20 3.75
      vertex 0 20 3.75
    endloop
  endfacet
  facet normal 0 1 0
    outer loop
      vertex 0 30 3.75
      vertex 2 30 1
      vertex 0 30 1
    endloop
  endfacet
  facet normal -0 1 0
    outer loop
      vertex 0 30 3.75
      vertex 2 30 3.75
      vertex 2 30 1
    endloop
  endfacet
  facet normal 0 0 1
    outer loop
      vertex 2 20 3.75
      vertex 0 30 3.75
      vertex 0 20 3.75
    endloop
  endfacet
  facet normal 0 -0 1
    outer loop
      vertex 2 20 3.75
      vertex 2 30 3.75
      vertex 0 30 3.75
    endloop
  endfacet
  facet normal 1 0 0
    outer loop
      vertex 2 20.75 1
      vertex 2 20 3.75
      vertex 2 20 1
    endloop
  endfacet
  facet normal 1 0 -0
    outer loop
      vertex 2 20.75 1
      vertex 2 23.75 1
      vertex 2 20 3.75
    endloop
  endfacet
  facet normal 1 0 -0
    outer loop
      vertex 2 23.75 1
      vertex 2 30 3.75
      vertex 2 20 3.75
    endloop
  endfacet
  facet normal 1 0 -0
    outer loop
      vertex 2 30 1
      vertex 2 30 3.75
      vertex 2 23.75 1
    endloop
  endfacet
  facet normal -1 0 0
    outer loop
      vertex 36 20 3.75
      vertex 36 20.75 1
      vertex 36 20 1
    endloop
  endfacet
  facet normal -1 0 0
    outer loop
      vertex 36 20 3.75
      vertex 36 23.75 1
      vertex 36 20.75 1
    endloop
  endfacet
  facet normal -1 0 -0
    outer loop
      vertex 36 30 3.75
      vertex 36 30 1
      vertex 36 23.75 1
    endloop
  endfacet
  facet normal -1 -0 0
    outer loop
      vertex 36 30 3.75
      vertex 36 23.75 1
      vertex 36 20 3.75
    endloop
  endfacet
  facet normal 0 -1 0
    outer loop
      vertex 38 20 1
      vertex 36 20 3.75
      vertex 36 20 1
    endloop
  endfacet
  facet normal 0 -1 0
    outer loop
      vertex 38 20 1
      vertex 38 20 3.75
      vertex 36 20 3.75
    endloop
  endfacet
  facet normal 0 1 0
    outer loop
      vertex 36 30 3.75
      vertex 38 30 1
      vertex 36 30 1
    endloop
  endfacet
  facet normal -0 1 0
    outer loop
      vertex 36 30 3.75
      vertex 38 30 3.75
      vertex 38 30 1
    endloop
  endfacet
  facet normal 0 0 1
    outer loop
      vertex 38 20 3.75
      vertex 36 30 3.75
      vertex 36 20 3.75
    endloop
  endfacet
  facet normal 0 -0 1
    outer loop
      vertex 38 20 3.75
      vertex 38 30 3.75
      vertex 36 30 3.75
    endloop
  endfacet
endsolid OpenSCAD_Model
